<?xml version="1.0" encoding="UTF-8" standalone="no"?>
<!-- Created with Inkscape (http://www.inkscape.org/) -->

<svg
   width="126.10023mm"
   height="34.737259mm"
   viewBox="0 0 126.10023 34.737259"
   version="1.1"
   id="svg1733"
   inkscape:version="1.1.1 (3bf5ae0d25, 2021-09-20)"
   sodipodi:docname="ideas-full-dark.svg"
   xmlns:inkscape="http://www.inkscape.org/namespaces/inkscape"
   xmlns:sodipodi="http://sodipodi.sourceforge.net/DTD/sodipodi-0.dtd"
   xmlns:xlink="http://www.w3.org/1999/xlink"
   xmlns="http://www.w3.org/2000/svg"
   xmlns:svg="http://www.w3.org/2000/svg">
  <sodipodi:namedview
     id="namedview1735"
     pagecolor="#ffffff"
     bordercolor="#000000"
     borderopacity="0.25"
     inkscape:showpageshadow="2"
     inkscape:pageopacity="0.0"
     inkscape:pagecheckerboard="0"
     inkscape:deskcolor="#d1d1d1"
     inkscape:document-units="mm"
     showgrid="false"
     inkscape:zoom="1.2938725"
     inkscape:cx="288.66832"
     inkscape:cy="147.61888"
     inkscape:window-width="1440"
     inkscape:window-height="890"
     inkscape:window-x="-6"
     inkscape:window-y="-6"
     inkscape:window-maximized="1"
     inkscape:current-layer="text12537-1-5-1-0-9-6-1-5-3-8-8"
     inkscape:pageshadow="2"
     inkscape:snap-text-baseline="true"
     inkscape:snap-center="true"
     fit-margin-top="0"
     fit-margin-left="0"
     fit-margin-right="0"
     fit-margin-bottom="0" />
  <defs
     id="defs1730">
    <linearGradient
       x1="323.94"
       y1="307.37"
       x2="336.06"
       y2="278.94"
       gradientUnits="userSpaceOnUse"
       spreadMethod="pad"
       id="linearGradient619616">
      <stop
         style="stop-color:#2eaf76;stop-opacity:1"
         offset="0"
         id="stop619610" />
      <stop
         style="stop-opacity:1;stop-color:#4fd080"
         offset="0.3584049"
         id="stop619612" />
      <stop
         style="stop-opacity:1;stop-color:#4f8fd1"
         offset="1"
         id="stop619614" />
    </linearGradient>
    <linearGradient
       x1="323.94"
       y1="307.37"
       x2="336.06"
       y2="278.94"
       gradientUnits="userSpaceOnUse"
       spreadMethod="pad"
       id="linearGradient615667">
      <stop
         style="stop-color:#54d27d;stop-opacity:1"
         offset="0"
         id="stop615661" />
      <stop
         style="stop-opacity:1;stop-color:#4fd080"
         offset="0.3584049"
         id="stop615663" />
      <stop
         style="stop-opacity:1;stop-color:#4f8fd1"
         offset="1"
         id="stop615665" />
    </linearGradient>
    <linearGradient
       x1="323.94"
       y1="307.37"
       x2="336.06"
       y2="278.94"
       gradientUnits="userSpaceOnUse"
       spreadMethod="pad"
       id="linearGradient590050">
      <stop
         style="stop-color:#56f389;stop-opacity:1"
         offset="0"
         id="stop590044" />
      <stop
         style="stop-opacity:1;stop-color:#4fd080"
         offset="0.3584049"
         id="stop590046" />
      <stop
         style="stop-opacity:1;stop-color:#42cd88"
         offset="1"
         id="stop590048" />
    </linearGradient>
    <linearGradient
       x1="323.94"
       y1="307.37"
       x2="336.06"
       y2="278.94"
       gradientUnits="userSpaceOnUse"
       spreadMethod="pad"
       id="linearGradient587644">
      <stop
         style="stop-color:#54d27d;stop-opacity:1"
         offset="0"
         id="stop587638" />
      <stop
         style="stop-opacity:1;stop-color:#4fd080"
         offset="0.6429193"
         id="stop587640" />
      <stop
         style="stop-opacity:1;stop-color:#2dc795"
         offset="1"
         id="stop587642" />
    </linearGradient>
    <linearGradient
       x1="323.94"
       y1="307.37"
       x2="336.06"
       y2="278.94"
       gradientUnits="userSpaceOnUse"
       spreadMethod="pad"
       id="linearGradient582614">
      <stop
         style="stop-color:#34c563;stop-opacity:1"
         offset="0"
         id="stop582608" />
      <stop
         style="stop-opacity:1;stop-color:#4fd080"
         offset="0.19843249"
         id="stop582610" />
      <stop
         style="stop-opacity:1;stop-color:#2eaf76"
         offset="1"
         id="stop582612" />
    </linearGradient>
    <linearGradient
       x1="323.94"
       y1="307.37"
       x2="336.06"
       y2="278.94"
       gradientUnits="userSpaceOnUse"
       spreadMethod="pad"
       id="linearGradient576845">
      <stop
         style="stop-color:#54d27d;stop-opacity:1"
         offset="0"
         id="stop576839" />
      <stop
         style="stop-opacity:1;stop-color:#4fd080"
         offset="0.3584049"
         id="stop576841" />
      <stop
         style="stop-opacity:1;stop-color:#2eaf76"
         offset="1"
         id="stop576843" />
    </linearGradient>
    <linearGradient
       x1="323.94"
       y1="307.37"
       x2="336.06"
       y2="278.94"
       gradientUnits="userSpaceOnUse"
       spreadMethod="pad"
       id="linearGradient532972">
      <stop
         style="stop-color:#54d27d;stop-opacity:1"
         offset="0"
         id="stop532966" />
      <stop
         style="stop-opacity:1;stop-color:#4fd080"
         offset="0.68226373"
         id="stop532968" />
      <stop
         style="stop-opacity:1;stop-color:#2dc795"
         offset="1"
         id="stop532970" />
    </linearGradient>
    <linearGradient
       x1="323.94"
       y1="307.37"
       x2="336.06"
       y2="278.94"
       gradientUnits="userSpaceOnUse"
       spreadMethod="pad"
       id="linearGradient503156">
      <stop
         style="stop-color:#51d17f;stop-opacity:1"
         offset="0"
         id="stop503150" />
      <stop
         style="stop-opacity:1;stop-color:#16c0a3"
         offset="0.62231451"
         id="stop503152" />
      <stop
         style="stop-opacity:1;stop-color:#4f8fd1"
         offset="1"
         id="stop503154" />
    </linearGradient>
    <linearGradient
       x1="323.94"
       y1="307.37"
       x2="336.06"
       y2="278.94"
       gradientUnits="userSpaceOnUse"
       spreadMethod="pad"
       id="linearGradient499100">
      <stop
         style="stop-color:#5cd483;stop-opacity:1"
         offset="0"
         id="stop499094" />
      <stop
         style="stop-opacity:1;stop-color:#5cd483"
         offset="0.79974538"
         id="stop499096" />
      <stop
         style="stop-opacity:1;stop-color:#2cab8e"
         offset="1"
         id="stop499098" />
    </linearGradient>
    <linearGradient
       x1="323.94"
       y1="307.37"
       x2="336.06"
       y2="278.94"
       gradientUnits="userSpaceOnUse"
       spreadMethod="pad"
       id="linearGradient462265">
      <stop
         style="stop-color:#54d27d;stop-opacity:1"
         offset="0"
         id="stop462259" />
      <stop
         style="stop-opacity:1;stop-color:#00ffaa"
         offset="0.74977684"
         id="stop462261" />
      <stop
         style="stop-opacity:1;stop-color:#00ffaa"
         offset="1"
         id="stop462263" />
    </linearGradient>
    <linearGradient
       x1="323.94"
       y1="307.37"
       x2="336.06"
       y2="278.94"
       gradientUnits="userSpaceOnUse"
       spreadMethod="pad"
       id="linearGradient453071">
      <stop
         style="stop-color:#54d27d;stop-opacity:1"
         offset="0"
         id="stop453065" />
      <stop
         style="stop-opacity:1;stop-color:#16c0a3"
         offset="0.68473697"
         id="stop453067" />
      <stop
         style="stop-opacity:1;stop-color:#4f8fd1"
         offset="1"
         id="stop453069" />
    </linearGradient>
    <linearGradient
       x1="323.94"
       y1="307.37"
       x2="336.06"
       y2="278.94"
       gradientUnits="userSpaceOnUse"
       spreadMethod="pad"
       id="linearGradient429506">
      <stop
         style="stop-color:#54d27d;stop-opacity:1"
         offset="0"
         id="stop429500" />
      <stop
         style="stop-opacity:1;stop-color:#16c0a3"
         offset="0.5117954"
         id="stop429502" />
      <stop
         style="stop-opacity:1;stop-color:#357eca"
         offset="1"
         id="stop429504" />
    </linearGradient>
    <linearGradient
       x1="323.94"
       y1="307.37"
       x2="336.06"
       y2="278.94"
       gradientUnits="userSpaceOnUse"
       spreadMethod="pad"
       id="linearGradient391147">
      <stop
         style="stop-color:#5cd483;stop-opacity:1"
         offset="0"
         id="stop391141" />
      <stop
         style="stop-opacity:1;stop-color:#25c49c"
         offset="0.74977684"
         id="stop391143" />
      <stop
         style="stop-opacity:1;stop-color:#2c92be"
         offset="1"
         id="stop391145" />
    </linearGradient>
    <linearGradient
       x1="323.94"
       y1="307.37"
       x2="336.06"
       y2="278.94"
       gradientUnits="userSpaceOnUse"
       spreadMethod="pad"
       id="linearGradient333416">
      <stop
         style="stop-color:#5cd483;stop-opacity:1"
         offset="0"
         id="stop333410" />
      <stop
         style="stop-opacity:1;stop-color:#16c0a3"
         offset="0.5117954"
         id="stop333412" />
      <stop
         style="stop-opacity:1;stop-color:#2b67a5"
         offset="1"
         id="stop333414" />
    </linearGradient>
    <linearGradient
       x1="323.94"
       y1="307.37"
       x2="336.06"
       y2="278.94"
       gradientUnits="userSpaceOnUse"
       spreadMethod="pad"
       id="linearGradient248994">
      <stop
         style="stop-color:#2eaf65;stop-opacity:1"
         offset="0"
         id="stop248988" />
      <stop
         style="stop-opacity:1;stop-color:#117270"
         offset="0.82273525"
         id="stop248990" />
      <stop
         style="stop-opacity:1;stop-color:#0d656c"
         offset="1"
         id="stop248992" />
    </linearGradient>
    <linearGradient
       id="linearGradient235333"
       inkscape:swatch="solid">
      <stop
         style="stop-color:#00274c;stop-opacity:1;"
         offset="0"
         id="stop235331" />
    </linearGradient>
    <linearGradient
       x1="323.94"
       y1="307.37"
       x2="336.06"
       y2="278.94"
       gradientUnits="userSpaceOnUse"
       spreadMethod="pad"
       id="linearGradient229880">
      <stop
         style="stop-color:#2eaf65;stop-opacity:1"
         offset="0"
         id="stop229874" />
      <stop
         style="stop-opacity:1;stop-color:#0f6e71"
         offset="0.5117954"
         id="stop229876" />
      <stop
         style="stop-opacity:1;stop-color:#00274c"
         offset="1"
         id="stop229878" />
    </linearGradient>
    <linearGradient
       id="linearGradient218856"
       inkscape:swatch="solid">
      <stop
         style="stop-color:#2e5b76;stop-opacity:1;"
         offset="0"
         id="stop218854" />
    </linearGradient>
    <linearGradient
       x1="323.94"
       y1="307.37"
       x2="336.06"
       y2="278.94"
       gradientUnits="userSpaceOnUse"
       spreadMethod="pad"
       id="linearGradient174281">
      <stop
         style="stop-color:#2fbf7b;stop-opacity:1"
         offset="0"
         id="stop174277" />
      <stop
         style="stop-opacity:1;stop-color:#2eaf7d"
         offset="1"
         id="stop174279" />
    </linearGradient>
    <linearGradient
       x1="323.94"
       y1="307.37"
       x2="336.06"
       y2="278.94"
       gradientUnits="userSpaceOnUse"
       spreadMethod="pad"
       id="linearGradient140310">
      <stop
         style="stop-color:#114899;stop-opacity:1"
         offset="0"
         id="stop140304" />
      <stop
         style="stop-opacity:1;stop-color:#0f6e71"
         offset="0.49558213"
         id="stop140306" />
      <stop
         style="stop-opacity:1;stop-color:#0d9647"
         offset="1"
         id="stop140308" />
    </linearGradient>
    <linearGradient
       x1="323.94"
       y1="307.37"
       x2="336.06"
       y2="278.94"
       gradientUnits="userSpaceOnUse"
       spreadMethod="pad"
       id="linearGradient110216">
      <stop
         style="stop-color:#2eaf76;stop-opacity:1"
         offset="0"
         id="stop110210" />
      <stop
         style="stop-opacity:1;stop-color:#0f6e71"
         offset="0.5117954"
         id="stop110212" />
      <stop
         style="stop-opacity:1;stop-color:#00274c"
         offset="1"
         id="stop110214" />
    </linearGradient>
    <linearGradient
       x1="323.94"
       y1="307.37"
       x2="336.06"
       y2="278.94"
       gradientUnits="userSpaceOnUse"
       spreadMethod="pad"
       id="linearGradient24995">
      <stop
         style="stop-color:#0d9647;stop-opacity:1"
         offset="0"
         id="stop24989" />
      <stop
         style="stop-opacity:1;stop-color:#114899"
         offset="1"
         id="stop24993" />
    </linearGradient>
    <linearGradient
       x1="323.94"
       y1="307.37"
       x2="336.06"
       y2="278.94"
       gradientUnits="userSpaceOnUse"
       spreadMethod="pad"
       id="linearGradient19039">
      <stop
         style="stop-color:#009947;stop-opacity:1"
         offset="0"
         id="stop19033" />
      <stop
         style="stop-opacity:1;stop-color:#00674c"
         offset="0.56591994"
         id="stop19035" />
      <stop
         style="stop-opacity:1;stop-color:#00274c"
         offset="1"
         id="stop19037" />
    </linearGradient>
    <linearGradient
       x1="323.94"
       y1="307.37"
       x2="336.06"
       y2="278.94"
       gradientUnits="userSpaceOnUse"
       spreadMethod="pad"
       id="linearGradient17375-9">
      <stop
         style="stop-color:#0d9947;stop-opacity:1;"
         offset="0"
         id="stop17154" />
      <stop
         style="stop-opacity:1;stop-color:#09674c"
         offset="0.49558213"
         id="stop17156" />
      <stop
         style="stop-opacity:1;stop-color:#00274c"
         offset="1"
         id="stop17158" />
    </linearGradient>
    <linearGradient
       x1="323.94"
       y1="307.37"
       x2="336.06"
       y2="278.94"
       gradientUnits="userSpaceOnUse"
       spreadMethod="pad"
       id="linearGradient17375">
      <stop
         style="stop-color:#0d9947;stop-opacity:1;"
         offset="0"
         id="stop1861" />
      <stop
         style="stop-opacity:1;stop-color:#09674c"
         offset="0.49558213"
         id="stop1863" />
      <stop
         style="stop-opacity:1;stop-color:#00274c"
         offset="1"
         id="stop1865" />
    </linearGradient>
    <linearGradient
       x1="323.94"
       y1="307.37"
       x2="336.06"
       y2="278.94"
       gradientUnits="userSpaceOnUse"
       spreadMethod="pad"
       id="linearGradient17375-9-6">
      <stop
         style="stop-color:#0d9947;stop-opacity:1;"
         offset="0"
         id="stop17367" />
      <stop
         style="stop-opacity:1;stop-color:#09674c"
         offset="0.49558213"
         id="stop17369" />
      <stop
         style="stop-opacity:1;stop-color:#00274c"
         offset="1"
         id="stop17373" />
    </linearGradient>
    <linearGradient
       inkscape:collect="always"
       xlink:href="#linearGradient110216"
       id="linearGradient2627"
       gradientUnits="userSpaceOnUse"
       gradientTransform="matrix(1.4706019,0,0,1.470602,-493.54276,573.56842)"
       x1="371.2037"
       y1="-363.70874"
       x2="423.16714"
       y2="-363.70874" />
    <filter
       inkscape:label="Fluorescence"
       inkscape:menu="Color"
       inkscape:menu-tooltip="Oversaturate colors which can be fluorescent in real world"
       style="color-interpolation-filters:sRGB"
       id="filter460504"
       x="0"
       y="0"
       width="1"
       height="1">
      <feColorMatrix
         type="hueRotate"
         values="0"
         id="feColorMatrix460498" />
      <feColorMatrix
         type="saturate"
         values="1"
         id="feColorMatrix460500" />
      <feColorMatrix
         type="matrix"
         values="2 -1 0 0 0 0 2 -1 0 0 -1 0 2 0 0 0 0 0 1 0 "
         id="feColorMatrix460502" />
    </filter>
    <linearGradient
       inkscape:collect="always"
       xlink:href="#linearGradient582614"
       id="linearGradient583585"
       gradientUnits="userSpaceOnUse"
       gradientTransform="translate(0.85493151)"
       x1="12.285912"
       y1="47.368958"
       x2="46.326286"
       y2="31.728523" />
    <linearGradient
       inkscape:collect="always"
       xlink:href="#linearGradient110216"
       id="linearGradient708"
       gradientUnits="userSpaceOnUse"
       gradientTransform="matrix(1.4706019,0,0,1.470602,-494.07712,573.56842)"
       x1="371.2037"
       y1="-363.70874"
       x2="423.16714"
       y2="-363.70874" />
    <linearGradient
       inkscape:collect="always"
       xlink:href="#linearGradient110216"
       id="linearGradient710"
       gradientUnits="userSpaceOnUse"
       gradientTransform="matrix(1.4706019,0,0,1.470602,-494.07712,573.56842)"
       x1="371.2037"
       y1="-363.70874"
       x2="423.16714"
       y2="-363.70874" />
    <linearGradient
       inkscape:collect="always"
       xlink:href="#linearGradient110216"
       id="linearGradient712"
       gradientUnits="userSpaceOnUse"
       gradientTransform="matrix(1.4706019,0,0,1.470602,-494.07712,573.56842)"
       x1="371.2037"
       y1="-363.70874"
       x2="423.16714"
       y2="-363.70874" />
    <linearGradient
       inkscape:collect="always"
       xlink:href="#linearGradient110216"
       id="linearGradient714"
       gradientUnits="userSpaceOnUse"
       gradientTransform="matrix(1.4706019,0,0,1.470602,-493.54276,573.56842)"
       x1="371.2037"
       y1="-363.70874"
       x2="423.16714"
       y2="-363.70874" />
    <linearGradient
       inkscape:collect="always"
       xlink:href="#linearGradient110216"
       id="linearGradient716"
       gradientUnits="userSpaceOnUse"
       gradientTransform="matrix(1.4706019,0,0,1.470602,-493.54276,573.56842)"
       x1="371.2037"
       y1="-363.70874"
       x2="423.16714"
       y2="-363.70874" />
  </defs>
  <g
     inkscape:label="Layer 1"
     inkscape:groupmode="layer"
     id="layer1"
     transform="translate(-22.055779,-25.662563)">
    <text
       xml:space="preserve"
       style="font-style:normal;font-weight:normal;font-size:10.5833px;line-height:1.25;font-family:sans-serif;fill:#000000;fill-opacity:1;stroke:none;stroke-width:0.264583"
       x="64.618683"
       y="160.93323"
       id="text529599"><tspan
         sodipodi:role="line"
         id="tspan529597"
         style="stroke-width:0.264583"
         x="64.618683"
         y="160.93323" /></text>
    <g
       id="g636095"
       transform="translate(11.451412,-2.862853)"
       inkscape:export-filename="G:\My Drive\IDEAS Lab\Templates\g636095.png"
       inkscape:export-xdpi="1000"
       inkscape:export-ydpi="1000">
      <path
         class="st0"
         d="m 16.27903,31.758494 c -2.246139,-0.38934 -3.63005,-1.63784 -4.994888,-3.233078 2.45629,0.53949 4.856673,1.094888 7.269619,1.591798 6.006601,1.23688 12.018832,2.44707 18.028468,3.66932 0.605293,0.12304 1.211897,0.36483 1.812,0.34804 0.559361,-0.0158 0.853562,-0.62682 1.256956,-0.97788 2.183299,-1.90155 4.497469,-3.48561 7.598472,-3.27954 0.24872,0.0163 0.496549,0.068 0.740482,0.12176 1.070215,0.23704 1.149909,0.16844 0.936301,0.31219 -0.344891,0.23231 -0.671993,0.57454 -1.015151,0.809 -2.928999,2.00051 -5.138743,4.6799 -7.267455,7.45868 -0.87436,1.14093 -2.213651,1.81379 -3.384806,2.64152 -1.938074,1.37024 -3.953714,2.62174 -6.044298,3.74977 -0.738309,0.39838 -2.264341,1.08586 -2.264341,1.08586 0,0 -0.854434,-0.66339 -1.197592,-1.07038 -1.837555,-2.17948 -3.812033,-4.1761 -6.503581,-5.31834 -0.09096,-0.0387 -0.18631,-0.0675 -0.303729,-0.10926 2.74312,1.91962 4.771313,4.50608 6.95463,6.93809 0.01724,0.0189 -0.0073,0.11573 -0.03255,0.12563 -3.039906,1.21579 -6.166475,2.0702 -9.473293,1.73162 -2.084523,-0.21339 -3.925985,-0.98391 -5.420372,-2.60754 -1.832787,-1.99104 -1.132166,-4.72464 -0.11266,-6.63652 0.93764,-1.75829 2.210185,-3.26448 3.783873,-4.96039 -1.122639,1.62449 -2.058105,2.97838 -2.717123,4.49791 -1.532525,3.53551 0.07758,6.2975 3.972337,6.78752 2.201079,0.27664 6.397854,-0.29384 7.533487,-1.0437 -1.114395,-0.18758 -2.196311,-0.36095 -3.213223,-0.82214 -1.43373,-0.65007 -1.961475,-2.02116 -2.710622,-3.22276 -0.471406,-0.75675 -1.018214,-1.4494 -1.746124,-1.98459 -0.02989,-0.0219 -0.04677,-0.0606 -0.06978,-0.0921 0.02558,-0.008 0.05373,-0.028 0.0762,-0.0228 2.383492,0.5296 5.021747,0.0288 7.137905,1.60471 1.136934,0.84667 1.825855,2.09343 2.440253,3.35526 0.05548,0.11444 0.07492,0.14153 0.20884,0.0594 2.130014,-1.30742 4.117916,-2.80716 6.056429,-4.37573 0.04897,-0.0395 0.08922,-0.0895 0.133456,-0.13465 -0.05722,-0.0225 -0.112219,-0.0516 -0.171152,-0.0663 -2.276905,-0.55929 -4.550764,-1.13233 -6.832445,-1.67183 -3.487058,-0.82472 -6.897429,-1.8409 -9.955107,-3.77731 -0.393848,-0.24952 -0.794207,-0.48872 -1.180692,-0.749 -0.204512,-0.1381 -0.385192,-0.31105 -0.648188,-0.52658 5.840235,0.81817 11.310601,2.52159 16.057898,3.03301 0.672983,0.081 0.667821,0.0818 -0.0055,0.002 -4.700726,-0.90924 -10.18945,-2.4208 -14.732794,-3.24032 z"
         id="path14772-8-1-5-3-8-6-4-8-3-4-6-8"
         style="fill:url(#linearGradient583585);fill-opacity:1;stroke-width:0.0431748"
         sodipodi:nodetypes="ccccccccccccsccccccccccccccccccsccccccccccccc"
         inkscape:export-filename="IDEAS-Logo.png"
         inkscape:export-xdpi="600"
         inkscape:export-ydpi="600" />
      <g
         aria-label="Integrated Design of Environmentally-friendly
Aerospace Systems Laboratory"
         transform="matrix(0.94411613,0,0,1.0540829,0.05114826,0)"
         id="text12537-1-5-1-0-9-6-1-5-3-8-8"
         style="font-weight:600;font-size:5.14254px;font-family:Montserrat;-inkscape-font-specification:'Montserrat, Semi-Bold';fill:#00274c;stroke-width:1.35295">
        <path
           d="m 13.367479,52.554081 h -2.189597 v -0.662906 h 0.612686 v -2.413076 h -0.612686 v -0.662906 h 2.189597 v 0.662906 h -0.612685 v 2.413076 h 0.612685 z"
           style="text-align:center;text-anchor:middle"
           id="path512" />
        <path
           d="m 16.935619,52.554081 h -0.908984 v -1.39863 q 0,-0.170749 -0.01758,-0.338986 -0.01758,-0.170748 -0.06026,-0.251101 -0.05022,-0.09291 -0.148149,-0.135594 -0.09542,-0.04269 -0.268678,-0.04269 -0.123039,0 -0.2511,0.04018 -0.12555,0.04018 -0.2737,0.128061 v 1.998761 h -0.903962 v -2.81986 h 0.903962 v 0.311365 q 0.241057,-0.188325 0.462025,-0.288766 0.22348,-0.10044 0.494668,-0.10044 0.457004,0 0.713126,0.266167 0.258634,0.266166 0.258634,0.795989 z"
           style="text-align:center;text-anchor:middle"
           id="path514" />
        <path
           d="m 19.569664,52.528971 q -0.145638,0.03767 -0.308854,0.05775 -0.163215,0.0226 -0.39925,0.0226 -0.527311,0 -0.785944,-0.213435 -0.256123,-0.213436 -0.256123,-0.730703 v -1.318278 h -0.371629 v -0.612686 h 0.371629 v -0.806032 h 0.903962 v 0.806032 h 0.846209 v 0.612686 h -0.846209 v 0.99938 q 0,0.148149 0.0025,0.258634 0.0025,0.110484 0.04018,0.198369 0.03515,0.08788 0.123039,0.140617 0.0904,0.05022 0.261145,0.05022 0.07031,0 0.183304,-0.03013 0.115506,-0.03013 0.160704,-0.05524 h 0.07533 z"
           style="text-align:center;text-anchor:middle"
           id="path516" />
        <path
           d="m 22.886703,51.311133 h -2.069069 q 0.02009,0.331453 0.251101,0.507223 0.233523,0.175771 0.685504,0.175771 0.286255,0 0.554933,-0.102952 0.268677,-0.102951 0.42436,-0.220968 h 0.10044 v 0.725681 q -0.306343,0.123039 -0.577531,0.178281 -0.271189,0.05524 -0.600131,0.05524 -0.84872,0 -1.300701,-0.381673 -0.451981,-0.381673 -0.451981,-1.087265 0,-0.69806 0.426871,-1.104843 0.429382,-0.409294 1.175151,-0.409294 0.688015,0 1.034534,0.34903 0.346519,0.346519 0.346519,0.99938 z m -0.89894,-0.529822 q -0.0075,-0.283744 -0.140616,-0.426871 -0.133084,-0.143127 -0.414316,-0.143127 -0.261145,0 -0.429382,0.135594 -0.168238,0.135594 -0.188326,0.434404 z"
           style="text-align:center;text-anchor:middle"
           id="path518" />
        <path
           d="m 26.266516,52.230161 q 0,0.396739 -0.112995,0.667928 -0.112995,0.271188 -0.316387,0.42436 -0.203391,0.155682 -0.492157,0.223479 -0.286254,0.07031 -0.647839,0.07031 -0.293788,0 -0.580043,-0.03515 -0.283743,-0.03515 -0.492157,-0.08537 v -0.705592 h 0.110485 q 0.165726,0.06529 0.404272,0.118017 0.238545,0.05524 0.426871,0.05524 0.2511,0 0.406782,-0.04771 0.158194,-0.0452 0.241057,-0.130572 0.07784,-0.08035 0.112995,-0.205903 0.03515,-0.12555 0.03515,-0.301321 v -0.05273 q -0.163215,0.133084 -0.361584,0.210925 -0.19837,0.07784 -0.441938,0.07784 -0.592597,0 -0.914006,-0.356563 -0.321408,-0.356563 -0.321408,-1.084754 0,-0.34903 0.09793,-0.602642 0.09793,-0.253611 0.27621,-0.441937 0.165727,-0.17577 0.406783,-0.2737 0.243568,-0.09793 0.49718,-0.09793 0.228501,0 0.414316,0.05524 0.188325,0.05273 0.341496,0.14815 l 0.03264,-0.125551 h 0.876341 z m -0.903962,-0.564976 v -1.278102 q -0.07784,-0.03264 -0.190836,-0.05022 -0.112995,-0.02009 -0.203392,-0.02009 -0.356562,0 -0.534844,0.205902 -0.178281,0.203392 -0.178281,0.569999 0,0.406783 0.15066,0.567487 0.153171,0.160704 0.451981,0.160704 0.135595,0 0.266167,-0.04269 0.130572,-0.04269 0.238545,-0.112995 z"
           style="text-align:center;text-anchor:middle"
           id="path520" />
        <path
           d="m 29.164217,50.595496 h -0.08035 q -0.05775,-0.02009 -0.185814,-0.03013 -0.128062,-0.01004 -0.213436,-0.01004 -0.193347,0 -0.341497,0.02511 -0.148149,0.02511 -0.318897,0.08537 v 1.888276 H 27.12026 v -2.81986 h 0.903963 v 0.414316 q 0.298809,-0.256122 0.519778,-0.338985 0.220968,-0.08537 0.406783,-0.08537 0.04771,0 0.107973,0.0025 0.06026,0.0025 0.105462,0.0075 z"
           style="text-align:center;text-anchor:middle"
           id="path522" />
        <path
           d="m 31.383945,51.818356 v -0.587575 q -0.183303,0.01507 -0.396739,0.04269 -0.213435,0.02511 -0.323919,0.06026 -0.135595,0.04269 -0.208414,0.12555 -0.07031,0.08035 -0.07031,0.213436 0,0.08788 0.01507,0.143127 0.01507,0.05524 0.07533,0.105462 0.05775,0.05022 0.138106,0.07533 0.08035,0.0226 0.2511,0.0226 0.135594,0 0.2737,-0.05524 0.140616,-0.05524 0.246078,-0.145639 z m 0,0.436915 q -0.07282,0.05524 -0.180792,0.133084 -0.107973,0.07784 -0.203392,0.123039 -0.133083,0.06026 -0.27621,0.08788 -0.143128,0.03013 -0.313876,0.03013 -0.401761,0 -0.67295,-0.248589 -0.271188,-0.24859 -0.271188,-0.635285 0,-0.308854 0.138105,-0.504712 0.138105,-0.195859 0.391717,-0.308854 0.251101,-0.112995 0.62273,-0.160704 0.371628,-0.04771 0.770878,-0.07031 v -0.01507 q 0,-0.233524 -0.190836,-0.321409 -0.190837,-0.0904 -0.562465,-0.0904 -0.22348,0 -0.477092,0.08035 -0.253611,0.07784 -0.364095,0.120528 h -0.08286 v -0.680482 q 0.143128,-0.03767 0.464536,-0.08789 0.32392,-0.05273 0.64784,-0.05273 0.770879,0 1.112376,0.238546 0.344007,0.236034 0.344007,0.743257 v 1.918409 h -0.896429 z"
           style="text-align:center;text-anchor:middle"
           id="path524" />
        <path
           d="m 34.91442,52.528971 q -0.145638,0.03767 -0.308854,0.05775 -0.163215,0.0226 -0.399249,0.0226 -0.527312,0 -0.785945,-0.213435 -0.256123,-0.213436 -0.256123,-0.730703 V 50.346907 H 32.79262 v -0.612686 h 0.371629 v -0.806032 h 0.903962 v 0.806032 h 0.846209 v 0.612686 h -0.846209 v 0.99938 q 0,0.148149 0.0025,0.258634 0.0025,0.110484 0.04018,0.198369 0.03515,0.08788 0.12304,0.140617 0.0904,0.05022 0.261144,0.05022 0.07031,0 0.183304,-0.03013 0.115506,-0.03013 0.160704,-0.05524 h 0.07533 z"
           style="text-align:center;text-anchor:middle"
           id="path526" />
        <path
           d="m 38.231458,51.311133 h -2.069069 q 0.02009,0.331453 0.251101,0.507223 0.233524,0.175771 0.685505,0.175771 0.286254,0 0.554932,-0.102952 0.268677,-0.102951 0.42436,-0.220968 h 0.10044 v 0.725681 q -0.306343,0.123039 -0.577531,0.178281 -0.271189,0.05524 -0.600131,0.05524 -0.84872,0 -1.300701,-0.381673 -0.451981,-0.381673 -0.451981,-1.087265 0,-0.69806 0.426871,-1.104843 0.429382,-0.409294 1.175151,-0.409294 0.688016,0 1.034534,0.34903 0.346519,0.346519 0.346519,0.99938 z m -0.89894,-0.529822 q -0.0075,-0.283744 -0.140616,-0.426871 -0.133084,-0.143127 -0.414316,-0.143127 -0.261145,0 -0.429382,0.135594 -0.168238,0.135594 -0.188326,0.434404 z"
           style="text-align:center;text-anchor:middle"
           id="path528" />
        <path
           d="M 41.611273,52.554081 H 40.70731 v -0.293788 q -0.233523,0.190837 -0.436915,0.281233 -0.203391,0.0904 -0.469558,0.0904 -0.514756,0 -0.82361,-0.396739 -0.308853,-0.396739 -0.308853,-1.069688 0,-0.359074 0.102951,-0.635285 0.105462,-0.278721 0.286255,-0.477091 0.170748,-0.188325 0.414316,-0.291277 0.243567,-0.105462 0.487135,-0.105462 0.253611,0 0.414316,0.05524 0.163215,0.05273 0.333963,0.135595 v -1.200261 h 0.903963 z M 40.70731,51.775669 v -1.383564 q -0.09542,-0.04018 -0.20088,-0.05775 -0.105462,-0.01758 -0.193347,-0.01758 -0.356563,0 -0.534845,0.223479 -0.178281,0.220969 -0.178281,0.615197 0,0.414316 0.143127,0.602641 0.143128,0.185815 0.459514,0.185815 0.12304,0 0.261145,-0.0452 0.138105,-0.04771 0.243567,-0.123039 z"
           style="text-align:center;text-anchor:middle"
           id="path530" />
        <path
           d="m 47.805924,50.688404 q 0,0.522289 -0.238546,0.936605 -0.238545,0.411805 -0.602641,0.632773 -0.2737,0.165727 -0.600131,0.231013 -0.32643,0.06529 -0.773389,0.06529 h -1.318279 v -3.738888 h 1.355944 q 0.457003,0 0.788455,0.07784 0.331453,0.07533 0.557444,0.215947 0.386695,0.236034 0.607663,0.637795 0.22348,0.39925 0.22348,0.941628 z m -0.99687,-0.0075 q 0,-0.369118 -0.135594,-0.630263 -0.133083,-0.263655 -0.42436,-0.411805 -0.148149,-0.07282 -0.303832,-0.09793 -0.153171,-0.02762 -0.464536,-0.02762 h -0.243567 v 2.340257 h 0.243567 q 0.344008,0 0.504712,-0.03013 0.160705,-0.03264 0.313876,-0.115506 0.263656,-0.15066 0.386695,-0.401761 0.123039,-0.253612 0.123039,-0.62524 z"
           style="text-align:center;text-anchor:middle"
           id="path532" />
        <path
           d="m 51.268602,51.311133 h -2.069069 q 0.02009,0.331453 0.251101,0.507223 0.233523,0.175771 0.685504,0.175771 0.286255,0 0.554933,-0.102952 0.268677,-0.102951 0.42436,-0.220968 h 0.10044 v 0.725681 q -0.306343,0.123039 -0.577532,0.178281 -0.271188,0.05524 -0.60013,0.05524 -0.84872,0 -1.300701,-0.381673 -0.451981,-0.381673 -0.451981,-1.087265 0,-0.69806 0.426871,-1.104843 0.429382,-0.409294 1.175151,-0.409294 0.688015,0 1.034534,0.34903 0.346519,0.346519 0.346519,0.99938 z m -0.89894,-0.529822 q -0.0075,-0.283744 -0.140617,-0.426871 -0.133083,-0.143127 -0.414315,-0.143127 -0.261145,0 -0.429382,0.135594 -0.168238,0.135594 -0.188326,0.434404 z"
           style="text-align:center;text-anchor:middle"
           id="path534" />
        <path
           d="m 54.357138,51.660163 q 0,0.436915 -0.391717,0.705593 -0.391717,0.266166 -1.0722,0.266166 -0.376651,0 -0.682993,-0.07031 -0.306343,-0.07031 -0.492157,-0.155682 v -0.743258 h 0.08286 q 0.0678,0.04771 0.155682,0.105462 0.0904,0.05524 0.253612,0.120528 0.140616,0.05775 0.318897,0.100441 0.178282,0.04018 0.381673,0.04018 0.266167,0 0.394228,-0.05775 0.128062,-0.06027 0.128062,-0.175771 0,-0.102951 -0.07533,-0.148149 -0.07533,-0.04771 -0.286254,-0.0904 -0.100441,-0.0226 -0.2737,-0.04771 -0.170748,-0.02762 -0.311365,-0.06529 -0.384184,-0.10044 -0.569998,-0.311364 -0.185814,-0.213436 -0.185814,-0.529823 0,-0.406783 0.384184,-0.67546 0.386694,-0.271189 1.054622,-0.271189 0.316387,0 0.605152,0.06529 0.291277,0.06278 0.454492,0.135595 v 0.713125 h -0.07784 q -0.20088,-0.138105 -0.459514,-0.223479 -0.256122,-0.08788 -0.519778,-0.08788 -0.218458,0 -0.369118,0.06026 -0.148149,0.06026 -0.148149,0.170748 0,0.10044 0.0678,0.153172 0.0678,0.05273 0.318898,0.105462 0.138105,0.02762 0.296298,0.05524 0.160705,0.02511 0.321409,0.06529 0.356563,0.09291 0.527311,0.293788 0.170749,0.198369 0.170749,0.497179 z"
           style="text-align:center;text-anchor:middle"
           id="path536" />
        <path
           d="m 55.861231,52.554081 h -0.903962 v -2.81986 h 0.903962 z m 0.02511,-3.221621 h -0.954182 v -0.685504 h 0.954182 z"
           style="text-align:center;text-anchor:middle"
           id="path538" />
        <path
           d="m 59.456993,52.230161 q 0,0.396739 -0.112995,0.667928 -0.112996,0.271188 -0.316387,0.42436 -0.203392,0.155682 -0.492157,0.223479 -0.286255,0.07031 -0.64784,0.07031 -0.293787,0 -0.580042,-0.03515 -0.283744,-0.03515 -0.492157,-0.08537 v -0.705592 h 0.110484 q 0.165726,0.06529 0.404272,0.118017 0.238545,0.05524 0.426871,0.05524 0.251101,0 0.406783,-0.04771 0.158193,-0.0452 0.241056,-0.130572 0.07784,-0.08035 0.112996,-0.205903 0.03515,-0.12555 0.03515,-0.301321 v -0.05273 q -0.163216,0.133084 -0.361585,0.210925 -0.19837,0.07784 -0.441937,0.07784 -0.592597,0 -0.914006,-0.356563 -0.321409,-0.356563 -0.321409,-1.084754 0,-0.34903 0.09793,-0.602642 0.09793,-0.253611 0.276211,-0.441937 0.165726,-0.17577 0.406783,-0.2737 0.243567,-0.09793 0.497179,-0.09793 0.228502,0 0.414316,0.05524 0.188325,0.05273 0.341497,0.14815 l 0.03264,-0.125551 h 0.876341 z m -0.903962,-0.564976 v -1.278102 q -0.07784,-0.03264 -0.190837,-0.05022 -0.112995,-0.02009 -0.203391,-0.02009 -0.356563,0 -0.534844,0.205902 -0.178282,0.203392 -0.178282,0.569999 0,0.406783 0.150661,0.567487 0.153171,0.160704 0.451981,0.160704 0.135594,0 0.266166,-0.04269 0.130573,-0.04269 0.238546,-0.112995 z"
           style="text-align:center;text-anchor:middle"
           id="path540" />
        <path
           d="m 63.143149,52.554081 h -0.908984 v -1.39863 q 0,-0.170749 -0.01758,-0.338986 -0.01758,-0.170748 -0.06026,-0.251101 -0.05022,-0.09291 -0.148149,-0.135594 -0.09542,-0.04269 -0.268678,-0.04269 -0.123039,0 -0.2511,0.04018 -0.125551,0.04018 -0.2737,0.128061 v 1.998761 h -0.903962 v -2.81986 h 0.903962 v 0.311365 q 0.241057,-0.188325 0.462025,-0.288766 0.22348,-0.10044 0.494668,-0.10044 0.457003,0 0.713126,0.266167 0.258633,0.266166 0.258633,0.795989 z"
           style="text-align:center;text-anchor:middle"
           id="path542" />
        <path
           d="m 68.61463,51.145407 q 0,0.695548 -0.406783,1.097309 -0.404271,0.39925 -1.137485,0.39925 -0.733214,0 -1.139997,-0.39925 -0.404272,-0.401761 -0.404272,-1.097309 0,-0.700571 0.406783,-1.099821 0.409294,-0.39925 1.137486,-0.39925 0.738236,0 1.139996,0.401761 0.404272,0.401761 0.404272,1.09731 z m -1.112375,0.685504 q 0.08788,-0.107973 0.130572,-0.258633 0.0452,-0.153172 0.0452,-0.421849 0,-0.24859 -0.0452,-0.416827 -0.0452,-0.168238 -0.12555,-0.268678 -0.08035,-0.102951 -0.193348,-0.145638 -0.112995,-0.04269 -0.243567,-0.04269 -0.130572,0 -0.233524,0.03515 -0.10044,0.03515 -0.193347,0.140616 -0.08286,0.09793 -0.133084,0.268678 -0.04771,0.170748 -0.04771,0.429382 0,0.231012 0.04269,0.401761 0.04269,0.168237 0.125551,0.271188 0.08035,0.09793 0.190836,0.143128 0.112995,0.0452 0.256123,0.0452 0.123039,0 0.233523,-0.04018 0.112996,-0.04269 0.190837,-0.140617 z"
           style="text-align:center;text-anchor:middle"
           id="path544" />
        <path
           d="m 71.090484,49.309861 h -0.0678 q -0.06026,-0.01758 -0.158193,-0.04018 -0.09542,-0.0226 -0.205902,-0.0226 -0.266167,0 -0.361585,0.09542 -0.09291,0.09542 -0.09291,0.369118 v 0.0226 h 0.69806 v 0.612686 h -0.667927 v 2.207174 H 69.330264 V 50.346905 H 68.94357 v -0.612686 h 0.386694 v -0.07784 q 0,-0.517267 0.2737,-0.775901 0.276211,-0.258633 0.833654,-0.258633 0.200881,0 0.364096,0.01507 0.163215,0.01255 0.288766,0.03515 z"
           style="text-align:center;text-anchor:middle"
           id="path546" />
        <path
           d="m 75.946767,52.554081 h -2.704354 v -3.738888 h 2.704354 v 0.72317 h -1.74515 v 0.645328 h 1.619599 v 0.72317 h -1.619599 v 0.92405 h 1.74515 z"
           style="text-align:center;text-anchor:middle"
           id="path548" />
        <path
           d="m 79.537509,52.554081 h -0.908984 v -1.39863 q 0,-0.170749 -0.01758,-0.338986 -0.01758,-0.170748 -0.06026,-0.251101 -0.05022,-0.09291 -0.14815,-0.135594 -0.09542,-0.04269 -0.268677,-0.04269 -0.12304,0 -0.251101,0.04018 -0.12555,0.04018 -0.273699,0.128061 v 1.998761 h -0.903963 v -2.81986 h 0.903963 v 0.311365 q 0.241056,-0.188325 0.462025,-0.288766 0.223479,-0.10044 0.494668,-0.10044 0.457003,0 0.713125,0.266167 0.258634,0.266166 0.258634,0.795989 z"
           style="text-align:center;text-anchor:middle"
           id="path550" />
        <path
           d="m 83.208593,49.734221 -1.087265,2.81986 h -1.024491 l -1.079732,-2.81986 h 0.956693 l 0.652862,1.938497 0.645328,-1.938497 z"
           style="text-align:center;text-anchor:middle"
           id="path552" />
        <path
           d="m 84.614763,52.554081 h -0.903962 v -2.81986 h 0.903962 z m 0.02511,-3.221621 h -0.954182 v -0.685504 h 0.954182 z"
           style="text-align:center;text-anchor:middle"
           id="path554" />
        <path
           d="m 87.512458,50.595496 h -0.08035 q -0.05775,-0.02009 -0.185815,-0.03013 -0.128061,-0.01004 -0.213435,-0.01004 -0.193348,0 -0.341497,0.02511 -0.148149,0.02511 -0.318898,0.08537 v 1.888276 h -0.903962 v -2.81986 h 0.903962 v 0.414316 q 0.29881,-0.256122 0.519779,-0.338985 0.220968,-0.08537 0.406783,-0.08537 0.04771,0 0.107973,0.0025 0.06026,0.0025 0.105462,0.0075 z"
           style="text-align:center;text-anchor:middle"
           id="path556" />
        <path
           d="m 90.90734,51.145407 q 0,0.695548 -0.406783,1.097309 -0.404272,0.39925 -1.137486,0.39925 -0.733214,0 -1.139997,-0.39925 -0.404271,-0.401761 -0.404271,-1.097309 0,-0.700571 0.406783,-1.099821 0.409293,-0.39925 1.137485,-0.39925 0.738236,0 1.139997,0.401761 0.404272,0.401761 0.404272,1.09731 z m -1.112376,0.685504 q 0.08788,-0.107973 0.130572,-0.258633 0.0452,-0.153172 0.0452,-0.421849 0,-0.24859 -0.0452,-0.416827 -0.0452,-0.168238 -0.12555,-0.268678 -0.08035,-0.102951 -0.193347,-0.145638 -0.112996,-0.04269 -0.243568,-0.04269 -0.130572,0 -0.233523,0.03515 -0.100441,0.03515 -0.193348,0.140616 -0.08286,0.09793 -0.133083,0.268678 -0.04771,0.170748 -0.04771,0.429382 0,0.231012 0.04269,0.401761 0.04269,0.168237 0.12555,0.271188 0.08035,0.09793 0.190837,0.143128 0.112995,0.0452 0.256122,0.0452 0.123039,0 0.233524,-0.04018 0.112995,-0.04269 0.190836,-0.140617 z"
           style="text-align:center;text-anchor:middle"
           id="path558" />
        <path
           d="m 94.387591,52.554081 h -0.908984 v -1.39863 q 0,-0.170749 -0.01758,-0.338986 -0.01758,-0.170748 -0.06026,-0.251101 -0.05022,-0.09291 -0.148149,-0.135594 -0.09542,-0.04269 -0.268678,-0.04269 -0.123039,0 -0.2511,0.04018 -0.125551,0.04018 -0.2737,0.128061 v 1.998761 h -0.903962 v -2.81986 h 0.903962 v 0.311365 q 0.241057,-0.188325 0.462025,-0.288766 0.22348,-0.10044 0.494668,-0.10044 0.457003,0 0.713126,0.266167 0.258633,0.266166 0.258633,0.795989 z"
           style="text-align:center;text-anchor:middle"
           id="path560" />
        <path
           d="m 97.97582,50.55532 v 1.998761 h -0.908984 v -1.408674 q 0,-0.205903 -0.01004,-0.34903 -0.01004,-0.145638 -0.05524,-0.236035 -0.0452,-0.0904 -0.138105,-0.130572 -0.0904,-0.04269 -0.256123,-0.04269 -0.133083,0 -0.258634,0.05524 -0.12555,0.05273 -0.22599,0.112995 v 1.998761 h -0.903962 v -2.81986 h 0.903962 v 0.311365 q 0.233523,-0.183303 0.446959,-0.286255 0.213435,-0.102951 0.472069,-0.102951 0.278722,0 0.492157,0.125551 0.213436,0.123039 0.333964,0.364095 0.271189,-0.228501 0.527311,-0.359073 0.256123,-0.130573 0.502201,-0.130573 0.457003,0 0.693038,0.2737 0.238546,0.273699 0.238546,0.788456 v 1.835545 h -0.908985 v -1.408674 q 0,-0.208414 -0.01004,-0.351541 -0.0075,-0.143127 -0.05273,-0.233524 -0.04269,-0.0904 -0.135594,-0.130572 -0.09291,-0.04269 -0.261145,-0.04269 -0.112995,0 -0.220968,0.04018 -0.107973,0.03767 -0.263656,0.128061 z"
           style="text-align:center;text-anchor:middle"
           id="path562" />
        <path
           d="m 103.43726,51.311133 h -2.06907 q 0.0201,0.331453 0.2511,0.507223 0.23353,0.175771 0.68551,0.175771 0.28625,0 0.55493,-0.102952 0.26868,-0.102951 0.42436,-0.220968 h 0.10044 v 0.725681 q -0.30634,0.123039 -0.57753,0.178281 -0.27119,0.05524 -0.60013,0.05524 -0.84872,0 -1.3007,-0.381673 -0.45198,-0.381673 -0.45198,-1.087265 0,-0.69806 0.42687,-1.104843 0.42938,-0.409294 1.17515,-0.409294 0.68801,0 1.03453,0.34903 0.34652,0.346519 0.34652,0.99938 z m -0.89894,-0.529822 q -0.008,-0.283744 -0.14062,-0.426871 -0.13308,-0.143127 -0.41431,-0.143127 -0.26115,0 -0.42938,0.135594 -0.16824,0.135594 -0.18833,0.434404 z"
           style="text-align:center;text-anchor:middle"
           id="path564" />
        <path
           d="m 106.90747,52.554081 h -0.90899 v -1.39863 q 0,-0.170749 -0.0176,-0.338986 -0.0176,-0.170748 -0.0603,-0.251101 -0.0502,-0.09291 -0.14815,-0.135594 -0.0954,-0.04269 -0.26868,-0.04269 -0.12304,0 -0.2511,0.04018 -0.12555,0.04018 -0.2737,0.128061 v 1.998761 h -0.90396 v -2.81986 h 0.90396 v 0.311365 q 0.24106,-0.188325 0.46203,-0.288766 0.22348,-0.10044 0.49467,-0.10044 0.457,0 0.71312,0.266167 0.25864,0.266166 0.25864,0.795989 z"
           style="text-align:center;text-anchor:middle"
           id="path566" />
        <path
           d="m 109.54151,52.528971 q -0.14564,0.03767 -0.30885,0.05775 -0.16322,0.0226 -0.39925,0.0226 -0.52731,0 -0.78595,-0.213435 -0.25612,-0.213436 -0.25612,-0.730703 v -1.318278 h -0.37163 v -0.612686 h 0.37163 v -0.806032 h 0.90396 v 0.806032 h 0.84621 v 0.612686 h -0.84621 v 0.99938 q 0,0.148149 0.003,0.258634 0.003,0.110484 0.0402,0.198369 0.0352,0.08788 0.12304,0.140617 0.0904,0.05022 0.26114,0.05022 0.0703,0 0.18331,-0.03013 0.1155,-0.03013 0.1607,-0.05524 h 0.0753 z"
           style="text-align:center;text-anchor:middle"
           id="path568" />
        <path
           d="m 111.78887,51.818356 v -0.587575 q -0.18331,0.01507 -0.39674,0.04269 -0.21344,0.02511 -0.32392,0.06026 -0.1356,0.04269 -0.20841,0.12555 -0.0703,0.08035 -0.0703,0.213436 0,0.08788 0.0151,0.143127 0.0151,0.05524 0.0753,0.105462 0.0578,0.05022 0.13811,0.07533 0.0803,0.0226 0.2511,0.0226 0.13559,0 0.2737,-0.05524 0.14062,-0.05524 0.24608,-0.145639 z m 0,0.436915 q -0.0728,0.05524 -0.18079,0.133084 -0.10798,0.07784 -0.2034,0.123039 -0.13308,0.06026 -0.27621,0.08788 -0.14312,0.03013 -0.31387,0.03013 -0.40176,0 -0.67295,-0.248589 -0.27119,-0.24859 -0.27119,-0.635285 0,-0.308854 0.1381,-0.504712 0.13811,-0.195859 0.39172,-0.308854 0.2511,-0.112995 0.62273,-0.160704 0.37163,-0.04771 0.77088,-0.07031 v -0.01507 q 0,-0.233524 -0.19084,-0.321409 -0.19083,-0.0904 -0.56246,-0.0904 -0.22348,0 -0.47709,0.08035 -0.25361,0.07784 -0.3641,0.120528 h -0.0829 v -0.680482 q 0.14313,-0.03767 0.46453,-0.08789 0.32392,-0.05273 0.64784,-0.05273 0.77088,0 1.11238,0.238546 0.34401,0.236034 0.34401,0.743257 v 1.918409 h -0.89643 z"
           style="text-align:center;text-anchor:middle"
           id="path570" />
        <path
           d="m 114.4204,52.554081 h -0.90397 v -3.907125 h 0.90397 z"
           style="text-align:center;text-anchor:middle"
           id="path572" />
        <path
           d="m 116.1781,52.554081 h -0.90396 v -3.907125 h 0.90396 z"
           style="text-align:center;text-anchor:middle"
           id="path574" />
        <path
           d="m 118.30493,51.557212 0.64281,-1.822991 h 0.92908 l -1.56687,3.854394 h -0.97929 l 0.44695,-1.054622 -1.0973,-2.799772 h 0.94916 z"
           style="text-align:center;text-anchor:middle"
           id="path576" />
        <path
           d="m 122.14425,51.25338 h -1.9159 v -0.72317 h 1.9159 z"
           style="text-align:center;text-anchor:middle"
           id="path578" />
        <path
           d="m 124.67535,49.309861 h -0.0678 q -0.0603,-0.01758 -0.15819,-0.04018 -0.0954,-0.0226 -0.2059,-0.0226 -0.26617,0 -0.36159,0.09542 -0.0929,0.09542 -0.0929,0.369118 v 0.0226 h 0.69806 v 0.612686 h -0.66792 v 2.207174 h -0.90397 v -2.207174 h -0.38669 v -0.612686 h 0.38669 v -0.07784 q 0,-0.517267 0.2737,-0.775901 0.27621,-0.258633 0.83366,-0.258633 0.20088,0 0.36409,0.01507 0.16322,0.01255 0.28877,0.03515 z"
           style="text-align:center;text-anchor:middle"
           id="path580" />
        <path
           d="m 127.06332,50.595496 h -0.0804 q -0.0577,-0.02009 -0.18581,-0.03013 -0.12806,-0.01004 -0.21344,-0.01004 -0.19334,0 -0.34149,0.02511 -0.14815,0.02511 -0.3189,0.08537 v 1.888276 h -0.90396 v -2.81986 h 0.90396 v 0.414316 q 0.29881,-0.256122 0.51978,-0.338985 0.22097,-0.08537 0.40678,-0.08537 0.0477,0 0.10797,0.0025 0.0603,0.0025 0.10547,0.0075 z"
           style="text-align:center;text-anchor:middle"
           id="path582" />
        <path
           d="m 128.47952,52.554081 h -0.90397 v -2.81986 h 0.90397 z m 0.0251,-3.221621 h -0.95419 v -0.685504 h 0.95419 z"
           style="text-align:center;text-anchor:middle"
           id="path584" />
        <path
           d="m 132.11043,51.311133 h -2.06907 q 0.0201,0.331453 0.2511,0.507223 0.23353,0.175771 0.68551,0.175771 0.28625,0 0.55493,-0.102952 0.26868,-0.102951 0.42436,-0.220968 h 0.10044 v 0.725681 q -0.30634,0.123039 -0.57753,0.178281 -0.27119,0.05524 -0.60013,0.05524 -0.84872,0 -1.3007,-0.381673 -0.45198,-0.381673 -0.45198,-1.087265 0,-0.69806 0.42687,-1.104843 0.42938,-0.409294 1.17515,-0.409294 0.68802,0 1.03453,0.34903 0.34652,0.346519 0.34652,0.99938 z m -0.89894,-0.529822 q -0.008,-0.283744 -0.14061,-0.426871 -0.13309,-0.143127 -0.41432,-0.143127 -0.26114,0 -0.42938,0.135594 -0.16824,0.135594 -0.18833,0.434404 z"
           style="text-align:center;text-anchor:middle"
           id="path586" />
        <path
           d="m 135.58065,52.554081 h -0.90899 v -1.39863 q 0,-0.170749 -0.0176,-0.338986 -0.0176,-0.170748 -0.0603,-0.251101 -0.0502,-0.09291 -0.14815,-0.135594 -0.0954,-0.04269 -0.26868,-0.04269 -0.12304,0 -0.2511,0.04018 -0.12555,0.04018 -0.2737,0.128061 v 1.998761 h -0.90396 v -2.81986 h 0.90396 v 0.311365 q 0.24106,-0.188325 0.46203,-0.288766 0.22348,-0.10044 0.49467,-0.10044 0.457,0 0.71312,0.266167 0.25864,0.266166 0.25864,0.795989 z"
           style="text-align:center;text-anchor:middle"
           id="path588" />
        <path
           d="m 139.15381,52.554081 h -0.90396 v -0.293788 q -0.23353,0.190837 -0.43692,0.281233 -0.20339,0.0904 -0.46956,0.0904 -0.51475,0 -0.82361,-0.396739 -0.30885,-0.396739 -0.30885,-1.069688 0,-0.359074 0.10295,-0.635285 0.10546,-0.278721 0.28626,-0.477091 0.17074,-0.188325 0.41431,-0.291277 0.24357,-0.105462 0.48714,-0.105462 0.25361,0 0.41431,0.05524 0.16322,0.05273 0.33397,0.135595 v -1.200261 h 0.90396 z m -0.90396,-0.778412 v -1.383564 q -0.0954,-0.04018 -0.20088,-0.05775 -0.10547,-0.01758 -0.19335,-0.01758 -0.35656,0 -0.53485,0.223479 -0.17828,0.220969 -0.17828,0.615197 0,0.414316 0.14313,0.602641 0.14313,0.185815 0.45951,0.185815 0.12304,0 0.26115,-0.0452 0.1381,-0.04771 0.24357,-0.123039 z"
           style="text-align:center;text-anchor:middle"
           id="path590" />
        <path
           d="m 140.91152,52.554081 h -0.90397 v -3.907125 h 0.90397 z"
           style="text-align:center;text-anchor:middle"
           id="path592" />
        <path
           d="m 143.03834,51.557212 0.64282,-1.822991 h 0.92907 l -1.56687,3.854394 h -0.97929 l 0.44696,-1.054622 -1.09731,-2.799772 h 0.94916 z"
           style="text-align:center;text-anchor:middle"
           id="path594" />
        <path
           d="m 36.989767,58.982256 h -0.996869 l -0.258634,-0.755813 h -1.386075 l -0.258634,0.755813 h -0.971759 l 1.381053,-3.738888 h 1.109865 z m -1.489027,-1.441317 -0.459514,-1.340878 -0.459514,1.340878 z"
           style="text-align:center;text-anchor:middle"
           id="path596" />
        <path
           d="m 40.254074,57.739308 h -2.069068 q 0.02009,0.331453 0.2511,0.507223 0.233524,0.175771 0.685505,0.175771 0.286255,0 0.554932,-0.102952 0.268678,-0.102951 0.42436,-0.220968 h 0.10044 v 0.725681 q -0.306342,0.123039 -0.577531,0.178281 -0.271189,0.05524 -0.60013,0.05524 -0.84872,0 -1.300701,-0.381673 Q 37.271,58.29424 37.271,57.588648 q 0,-0.69806 0.426871,-1.104843 0.429382,-0.409294 1.17515,-0.409294 0.688016,0 1.034535,0.34903 0.346518,0.346519 0.346518,0.99938 z m -0.89894,-0.529822 q -0.0075,-0.283744 -0.140616,-0.426871 -0.133083,-0.143128 -0.414316,-0.143128 -0.261144,0 -0.429382,0.135595 -0.168237,0.135594 -0.188325,0.434404 z"
           style="text-align:center;text-anchor:middle"
           id="path598" />
        <path
           d="m 42.935829,57.023671 h -0.08035 q -0.05775,-0.02009 -0.185815,-0.03013 -0.128061,-0.01004 -0.213435,-0.01004 -0.193348,0 -0.341497,0.02511 -0.148149,0.02511 -0.318898,0.08537 v 1.888276 H 40.89187 v -2.81986 h 0.903962 v 0.414316 q 0.29881,-0.256122 0.519778,-0.338985 0.220969,-0.08537 0.406783,-0.08537 0.04771,0 0.107974,0.0025 0.06026,0.0025 0.105462,0.0075 z"
           style="text-align:center;text-anchor:middle"
           id="path600" />
        <path
           d="m 46.330708,57.573582 q 0,0.695548 -0.406783,1.097309 -0.404272,0.39925 -1.137485,0.39925 -0.733214,0 -1.139997,-0.39925 -0.404272,-0.401761 -0.404272,-1.097309 0,-0.700571 0.406783,-1.099821 0.409294,-0.39925 1.137486,-0.39925 0.738235,0 1.139996,0.401761 0.404272,0.401761 0.404272,1.09731 z m -1.112375,0.685504 q 0.08788,-0.107973 0.130572,-0.258633 0.0452,-0.153172 0.0452,-0.421849 0,-0.24859 -0.0452,-0.416827 -0.0452,-0.168238 -0.12555,-0.268678 -0.08035,-0.102951 -0.193348,-0.145638 -0.112995,-0.04269 -0.243567,-0.04269 -0.130573,0 -0.233524,0.03515 -0.10044,0.03515 -0.193347,0.140616 -0.08286,0.09793 -0.133084,0.268678 -0.04771,0.170748 -0.04771,0.429382 0,0.231012 0.04269,0.401761 0.04269,0.168237 0.125551,0.271188 0.08035,0.09793 0.190836,0.143128 0.112995,0.0452 0.256123,0.0452 0.123039,0 0.233523,-0.04018 0.112995,-0.04269 0.190837,-0.140617 z"
           style="text-align:center;text-anchor:middle"
           id="path602" />
        <path
           d="m 49.42929,58.088338 q 0,0.436915 -0.391717,0.705592 -0.391717,0.266167 -1.0722,0.266167 -0.376651,0 -0.682993,-0.07031 -0.306343,-0.07031 -0.492157,-0.155682 v -0.743258 h 0.08286 q 0.0678,0.04771 0.155682,0.105462 0.0904,0.05524 0.253612,0.120528 0.140616,0.05775 0.318898,0.100441 0.178281,0.04018 0.381672,0.04018 0.266167,0 0.394228,-0.05775 0.128062,-0.06027 0.128062,-0.175771 0,-0.102951 -0.07533,-0.148149 -0.07533,-0.04771 -0.286254,-0.0904 -0.10044,-0.0226 -0.2737,-0.04771 -0.170748,-0.02762 -0.311365,-0.06529 -0.384183,-0.10044 -0.569998,-0.311364 -0.185814,-0.213436 -0.185814,-0.529823 0,-0.406783 0.384184,-0.67546 0.386694,-0.271189 1.054622,-0.271189 0.316387,0 0.605152,0.06529 0.291277,0.06277 0.454492,0.135595 v 0.713125 h -0.07784 q -0.20088,-0.138105 -0.459514,-0.223479 -0.256122,-0.08788 -0.519778,-0.08788 -0.218457,0 -0.369118,0.06026 -0.148149,0.06026 -0.148149,0.170748 0,0.10044 0.0678,0.153171 0.0678,0.05273 0.318898,0.105463 0.138105,0.02762 0.296298,0.05524 0.160705,0.02511 0.321409,0.06529 0.356563,0.09291 0.527311,0.293788 0.170749,0.198369 0.170749,0.497179 z"
           style="text-align:center;text-anchor:middle"
           id="path604" />
        <path
           d="m 52.972319,57.533406 q 0,0.349029 -0.107973,0.635284 -0.105463,0.286255 -0.278722,0.472069 -0.180793,0.195859 -0.409294,0.296299 -0.228502,0.10044 -0.489646,0.10044 -0.241057,0 -0.409294,-0.05273 -0.168238,-0.05022 -0.344008,-0.143127 v 1.17515 H 50.02942 v -3.854394 h 0.903962 v 0.293788 q 0.208414,-0.165726 0.42436,-0.268678 0.218458,-0.102951 0.502201,-0.102951 0.527311,0 0.818588,0.386695 0.293788,0.386695 0.293788,1.062156 z m -0.931583,0.01758 q 0,-0.411805 -0.140617,-0.59762 -0.140616,-0.185814 -0.444448,-0.185814 -0.128061,0 -0.263655,0.04018 -0.135595,0.03767 -0.258634,0.110484 v 1.418718 q 0.0904,0.03515 0.193347,0.0452 0.102952,0.01004 0.203392,0.01004 0.359074,0 0.534844,-0.208414 0.175771,-0.210924 0.175771,-0.632774 z"
           style="text-align:center;text-anchor:middle"
           id="path606" />
        <path
           d="m 55.332664,58.246531 v -0.587575 q -0.183303,0.01507 -0.396739,0.04269 -0.213435,0.02511 -0.323919,0.06026 -0.135595,0.04269 -0.208414,0.12555 -0.07031,0.08035 -0.07031,0.213436 0,0.08788 0.01507,0.143127 0.01507,0.05524 0.07533,0.105462 0.05775,0.05022 0.138105,0.07533 0.08035,0.0226 0.251101,0.0226 0.135594,0 0.2737,-0.05524 0.140616,-0.05524 0.246078,-0.145639 z m 0,0.436915 q -0.07282,0.05524 -0.180792,0.133084 -0.107973,0.07784 -0.203392,0.123039 -0.133083,0.06026 -0.27621,0.08788 -0.143128,0.03013 -0.313876,0.03013 -0.401761,0 -0.67295,-0.248589 -0.271188,-0.24859 -0.271188,-0.635285 0,-0.308854 0.138105,-0.504712 0.138105,-0.195859 0.391717,-0.308854 0.251101,-0.112995 0.622729,-0.160704 0.371629,-0.04771 0.770879,-0.07031 v -0.01507 q 0,-0.233524 -0.190836,-0.321409 -0.190837,-0.0904 -0.562466,-0.0904 -0.223479,0 -0.477091,0.08035 -0.253611,0.07784 -0.364095,0.120528 h -0.08286 v -0.680482 q 0.143128,-0.03767 0.464536,-0.08789 0.32392,-0.05273 0.64784,-0.05273 0.770879,0 1.112376,0.238546 0.344007,0.236034 0.344007,0.743257 v 1.918409 h -0.896429 z"
           style="text-align:center;text-anchor:middle"
           id="path608" />
        <path
           d="m 58.529175,59.057586 q -0.369117,0 -0.67546,-0.08788 -0.303832,-0.08788 -0.529822,-0.271189 -0.22348,-0.183303 -0.346519,-0.462025 -0.12304,-0.278721 -0.12304,-0.652861 0,-0.394228 0.130573,-0.680483 0.133083,-0.286255 0.369118,-0.47458 0.228501,-0.178281 0.527311,-0.261145 0.29881,-0.08286 0.620218,-0.08286 0.288766,0 0.532334,0.06277 0.243567,0.06278 0.454492,0.163216 v 0.770879 h -0.128062 q -0.05273,-0.0452 -0.128061,-0.105463 -0.07282,-0.06026 -0.180792,-0.118017 -0.102952,-0.05524 -0.225991,-0.0904 -0.123039,-0.03767 -0.286255,-0.03767 -0.361584,0 -0.557443,0.231012 -0.193347,0.228502 -0.193347,0.62273 0,0.406783 0.198369,0.617707 0.200881,0.210925 0.567487,0.210925 0.170749,0 0.306343,-0.03767 0.138105,-0.04018 0.228502,-0.09291 0.08537,-0.05022 0.15066,-0.105462 0.06529,-0.05524 0.120528,-0.107973 h 0.128062 v 0.770879 q -0.213436,0.10044 -0.446959,0.158193 -0.231013,0.06026 -0.512246,0.06026 z"
           style="text-align:center;text-anchor:middle"
           id="path610" />
        <path
           d="m 62.863172,57.739308 h -2.069069 q 0.02009,0.331453 0.251101,0.507223 0.233523,0.175771 0.685504,0.175771 0.286255,0 0.554933,-0.102952 0.268677,-0.102951 0.42436,-0.220968 h 0.10044 v 0.725681 q -0.306343,0.123039 -0.577531,0.178281 -0.271189,0.05524 -0.600131,0.05524 -0.84872,0 -1.300701,-0.381673 -0.451981,-0.381673 -0.451981,-1.087265 0,-0.69806 0.426871,-1.104843 0.429382,-0.409294 1.175151,-0.409294 0.688015,0 1.034534,0.34903 0.346519,0.346519 0.346519,0.99938 z m -0.89894,-0.529822 q -0.0075,-0.283744 -0.140616,-0.426871 -0.133084,-0.143128 -0.414316,-0.143128 -0.261145,0 -0.429382,0.135595 -0.168238,0.135594 -0.188326,0.434404 z"
           style="text-align:center;text-anchor:middle"
           id="path612" />
        <path
           d="m 68.302009,57.807105 q 0,0.552421 -0.469558,0.89894 -0.467047,0.344008 -1.270569,0.344008 -0.464536,0 -0.811055,-0.08035 -0.344008,-0.08286 -0.645328,-0.208414 V 57.86486 h 0.105462 q 0.298809,0.238546 0.667927,0.366607 0.371629,0.128061 0.713126,0.128061 0.08788,0 0.231013,-0.01507 0.143127,-0.01507 0.233523,-0.05022 0.110484,-0.0452 0.180792,-0.112995 0.07282,-0.0678 0.07282,-0.20088 0,-0.12304 -0.105463,-0.210925 -0.102951,-0.0904 -0.303831,-0.138105 -0.210925,-0.05022 -0.446959,-0.09291 -0.233524,-0.0452 -0.439426,-0.112996 -0.472069,-0.153171 -0.680483,-0.414316 -0.205902,-0.263655 -0.205902,-0.652861 0,-0.522289 0.467047,-0.851231 0.469558,-0.331453 1.205282,-0.331453 0.369118,0 0.728192,0.07282 0.361585,0.07031 0.625241,0.178282 v 0.861275 h -0.102952 q -0.22599,-0.180793 -0.554932,-0.301321 -0.326431,-0.123039 -0.667927,-0.123039 -0.120529,0 -0.241057,0.01758 -0.118017,0.01507 -0.228502,0.06026 -0.09793,0.03766 -0.168237,0.115506 -0.07031,0.07533 -0.07031,0.17326 0,0.148149 0.112995,0.228501 0.112995,0.07784 0.426871,0.143127 0.205903,0.04269 0.394228,0.08286 0.190836,0.04018 0.409294,0.110484 0.429382,0.140616 0.632773,0.384184 0.205903,0.241056 0.205903,0.627751 z"
           style="text-align:center;text-anchor:middle"
           id="path614" />
        <path
           d="m 70.185263,57.985387 0.642817,-1.822991 h 0.929072 l -1.566867,3.854394 h -0.979292 l 0.446959,-1.054622 -1.09731,-2.799772 h 0.94916 z"
           style="text-align:center;text-anchor:middle"
           id="path616" />
        <path
           d="m 74.710096,58.088338 q 0,0.436915 -0.391717,0.705592 -0.391717,0.266167 -1.072199,0.266167 -0.376651,0 -0.682994,-0.07031 -0.306342,-0.07031 -0.492157,-0.155682 v -0.743258 h 0.08286 q 0.0678,0.04771 0.155683,0.105462 0.0904,0.05524 0.253611,0.120528 0.140617,0.05775 0.318898,0.100441 0.178281,0.04018 0.381673,0.04018 0.266167,0 0.394228,-0.05775 0.128061,-0.06027 0.128061,-0.175771 0,-0.102951 -0.07533,-0.148149 -0.07533,-0.04771 -0.286255,-0.0904 -0.10044,-0.0226 -0.273699,-0.04771 -0.170749,-0.02762 -0.311365,-0.06529 -0.384184,-0.10044 -0.569998,-0.311364 -0.185815,-0.213436 -0.185815,-0.529823 0,-0.406783 0.384184,-0.67546 0.386695,-0.271189 1.054623,-0.271189 0.316386,0 0.605152,0.06529 0.291277,0.06277 0.454492,0.135595 v 0.713125 h -0.07784 q -0.200881,-0.138105 -0.459514,-0.223479 -0.256123,-0.08788 -0.519778,-0.08788 -0.218458,0 -0.369118,0.06026 -0.14815,0.06026 -0.14815,0.170748 0,0.10044 0.0678,0.153171 0.0678,0.05273 0.318897,0.105463 0.138106,0.02762 0.296299,0.05524 0.160704,0.02511 0.321409,0.06529 0.356563,0.09291 0.527311,0.293788 0.170748,0.198369 0.170748,0.497179 z"
           style="text-align:center;text-anchor:middle"
           id="path618" />
        <path
           d="m 77.11313,58.957146 q -0.145639,0.03766 -0.308854,0.05775 -0.163215,0.0226 -0.39925,0.0226 -0.527311,0 -0.785945,-0.213435 -0.256122,-0.213436 -0.256122,-0.730703 V 56.775082 H 74.99133 v -0.612686 h 0.371629 v -0.806033 h 0.903962 v 0.806033 h 0.846209 v 0.612686 h -0.846209 v 0.99938 q 0,0.148149 0.0025,0.258634 0.0025,0.110484 0.04018,0.198369 0.03515,0.08788 0.123039,0.140617 0.0904,0.05022 0.261145,0.05022 0.07031,0 0.183303,-0.03013 0.115506,-0.03013 0.160704,-0.05524 h 0.07533 z"
           style="text-align:center;text-anchor:middle"
           id="path620" />
        <path
           d="m 80.43017,57.739308 h -2.069069 q 0.02009,0.331453 0.2511,0.507223 0.233524,0.175771 0.685505,0.175771 0.286255,0 0.554932,-0.102952 0.268678,-0.102951 0.42436,-0.220968 h 0.10044 v 0.725681 q -0.306342,0.123039 -0.577531,0.178281 -0.271189,0.05524 -0.60013,0.05524 -0.84872,0 -1.300701,-0.381673 -0.451981,-0.381673 -0.451981,-1.087265 0,-0.69806 0.426871,-1.104843 0.429382,-0.409294 1.17515,-0.409294 0.688016,0 1.034535,0.34903 0.346519,0.346519 0.346519,0.99938 z m -0.898941,-0.529822 q -0.0075,-0.283744 -0.140616,-0.426871 -0.133083,-0.143128 -0.414316,-0.143128 -0.261144,0 -0.429382,0.135595 -0.168237,0.135594 -0.188325,0.434404 z"
           style="text-align:center;text-anchor:middle"
           id="path622" />
        <path
           d="m 83.825048,56.983495 v 1.998761 h -0.908984 v -1.408674 q 0,-0.205903 -0.01004,-0.34903 -0.01004,-0.145638 -0.05524,-0.236035 -0.0452,-0.0904 -0.138106,-0.130572 -0.0904,-0.04269 -0.256122,-0.04269 -0.133083,0 -0.258634,0.05524 -0.12555,0.05273 -0.22599,0.112995 v 1.998761 H 81.06797 v -2.81986 h 0.903962 v 0.311365 q 0.233523,-0.183303 0.446959,-0.286255 0.213435,-0.102951 0.472069,-0.102951 0.278722,0 0.492157,0.12555 0.213436,0.12304 0.333964,0.364096 0.271188,-0.228501 0.527311,-0.359074 0.256123,-0.130572 0.502201,-0.130572 0.457003,0 0.693038,0.2737 0.238545,0.273699 0.238545,0.788456 v 1.835545 h -0.908984 v -1.408674 q 0,-0.208414 -0.01004,-0.351541 -0.0075,-0.143127 -0.05273,-0.233524 -0.04269,-0.0904 -0.135594,-0.130572 -0.09291,-0.04269 -0.261145,-0.04269 -0.112995,0 -0.220968,0.04018 -0.107974,0.03766 -0.263656,0.128061 z"
           style="text-align:center;text-anchor:middle"
           id="path624" />
        <path
           d="m 88.960054,58.088338 q 0,0.436915 -0.391717,0.705592 -0.391716,0.266167 -1.072199,0.266167 -0.376651,0 -0.682994,-0.07031 -0.306342,-0.07031 -0.492157,-0.155682 v -0.743258 h 0.08286 q 0.0678,0.04771 0.155683,0.105462 0.0904,0.05524 0.253611,0.120528 0.140617,0.05775 0.318898,0.100441 0.178282,0.04018 0.381673,0.04018 0.266167,0 0.394228,-0.05775 0.128061,-0.06027 0.128061,-0.175771 0,-0.102951 -0.07533,-0.148149 -0.07533,-0.04771 -0.286255,-0.0904 -0.10044,-0.0226 -0.273699,-0.04771 -0.170749,-0.02762 -0.311365,-0.06529 -0.384184,-0.10044 -0.569998,-0.311364 -0.185815,-0.213436 -0.185815,-0.529823 0,-0.406783 0.384184,-0.67546 0.386695,-0.271189 1.054623,-0.271189 0.316386,0 0.605152,0.06529 0.291277,0.06277 0.454492,0.135595 v 0.713125 h -0.07784 q -0.200881,-0.138105 -0.459514,-0.223479 -0.256123,-0.08788 -0.519778,-0.08788 -0.218458,0 -0.369118,0.06026 -0.14815,0.06026 -0.14815,0.170748 0,0.10044 0.0678,0.153171 0.0678,0.05273 0.318897,0.105463 0.138106,0.02762 0.296299,0.05524 0.160704,0.02511 0.321409,0.06529 0.356563,0.09291 0.527311,0.293788 0.170748,0.198369 0.170748,0.497179 z"
           style="text-align:center;text-anchor:middle"
           id="path626" />
        <path
           d="m 94.064932,58.982256 h -2.696821 v -3.738888 h 0.964227 v 3.015718 h 1.732594 z"
           style="text-align:center;text-anchor:middle"
           id="path628" />
        <path
           d="m 96.302234,58.246531 v -0.587575 q -0.183303,0.01507 -0.396739,0.04269 -0.213435,0.02511 -0.323919,0.06026 -0.135595,0.04269 -0.208414,0.12555 -0.07031,0.08035 -0.07031,0.213436 0,0.08788 0.01507,0.143127 0.01507,0.05524 0.07533,0.105462 0.05775,0.05022 0.138106,0.07533 0.08035,0.0226 0.2511,0.0226 0.135595,0 0.2737,-0.05524 0.140616,-0.05524 0.246078,-0.145639 z m 0,0.436915 q -0.07282,0.05524 -0.180792,0.133084 -0.107973,0.07784 -0.203391,0.123039 -0.133084,0.06026 -0.276211,0.08788 -0.143127,0.03013 -0.313876,0.03013 -0.401761,0 -0.672949,-0.248589 -0.271189,-0.24859 -0.271189,-0.635285 0,-0.308854 0.138105,-0.504712 0.138106,-0.195859 0.391717,-0.308854 0.251101,-0.112995 0.62273,-0.160704 0.371628,-0.04771 0.770878,-0.07031 v -0.01507 q 0,-0.233524 -0.190836,-0.321409 -0.190836,-0.0904 -0.562465,-0.0904 -0.22348,0 -0.477091,0.08035 -0.253612,0.07784 -0.364096,0.120528 h -0.08286 v -0.680482 q 0.143127,-0.03767 0.464536,-0.08789 0.323919,-0.05273 0.647839,-0.05273 0.770879,0 1.112376,0.238546 0.344007,0.236034 0.344007,0.743257 v 1.918409 h -0.896429 z"
           style="text-align:center;text-anchor:middle"
           id="path630" />
        <path
           d="m 100.9727,57.533406 q 0,0.665416 -0.36911,1.084754 -0.36661,0.419338 -0.916521,0.419338 -0.236034,0 -0.414316,-0.05022 -0.178281,-0.05022 -0.338986,-0.145638 l -0.03767,0.140616 H 98.0298 v -3.907125 h 0.903962 v 1.381053 q 0.208414,-0.165726 0.42436,-0.268678 0.218458,-0.102951 0.502201,-0.102951 0.534837,0 0.823607,0.386695 0.28876,0.384184 0.28876,1.062156 z m -0.93158,0.01758 q 0,-0.376651 -0.12806,-0.580043 -0.128062,-0.203391 -0.457003,-0.203391 -0.128062,0 -0.263656,0.04018 -0.135594,0.03767 -0.258634,0.110484 v 1.416207 q 0.09793,0.03516 0.185815,0.04771 0.08788,0.01255 0.210924,0.01255 0.359074,0 0.534844,-0.210925 0.17577,-0.210924 0.17577,-0.632773 z"
           style="text-align:center;text-anchor:middle"
           id="path632" />
        <path
           d="m 104.5082,57.573582 q 0,0.695548 -0.40678,1.097309 -0.40427,0.39925 -1.13748,0.39925 -0.73322,0 -1.14,-0.39925 -0.40427,-0.401761 -0.40427,-1.097309 0,-0.700571 0.40678,-1.099821 0.40929,-0.39925 1.13749,-0.39925 0.73823,0 1.13999,0.401761 0.40427,0.401761 0.40427,1.09731 z m -1.11237,0.685504 q 0.0879,-0.107973 0.13057,-0.258633 0.0452,-0.153172 0.0452,-0.421849 0,-0.24859 -0.0452,-0.416827 -0.0452,-0.168238 -0.12555,-0.268678 -0.0804,-0.102951 -0.19335,-0.145638 -0.11299,-0.04269 -0.24356,-0.04269 -0.13058,0 -0.23353,0.03515 -0.10044,0.03515 -0.19335,0.140616 -0.0829,0.09793 -0.13308,0.268678 -0.0477,0.170748 -0.0477,0.429382 0,0.231012 0.0427,0.401761 0.0427,0.168237 0.12555,0.271188 0.0803,0.09793 0.19084,0.143128 0.11299,0.0452 0.25612,0.0452 0.12304,0 0.23352,-0.04018 0.113,-0.04269 0.19084,-0.140617 z"
           style="text-align:center;text-anchor:middle"
           id="path634" />
        <path
           d="m 107.2,57.023671 h -0.0804 q -0.0578,-0.02009 -0.18582,-0.03013 -0.12806,-0.01004 -0.21343,-0.01004 -0.19335,0 -0.3415,0.02511 -0.14815,0.02511 -0.3189,0.08537 v 1.888276 h -0.90396 v -2.81986 H 106.06 v 0.414316 q 0.29881,-0.256122 0.51978,-0.338985 0.22097,-0.08537 0.40678,-0.08537 0.0477,0 0.10798,0.0025 0.0603,0.0025 0.10546,0.0075 z"
           style="text-align:center;text-anchor:middle"
           id="path636" />
        <path
           d="m 109.41973,58.246531 v -0.587575 q -0.1833,0.01507 -0.39674,0.04269 -0.21343,0.02511 -0.32392,0.06026 -0.13559,0.04269 -0.20841,0.12555 -0.0703,0.08035 -0.0703,0.213436 0,0.08788 0.0151,0.143127 0.0151,0.05524 0.0753,0.105462 0.0577,0.05022 0.1381,0.07533 0.0804,0.0226 0.2511,0.0226 0.1356,0 0.2737,-0.05524 0.14062,-0.05524 0.24608,-0.145639 z m 0,0.436915 q -0.0728,0.05524 -0.18079,0.133084 -0.10797,0.07784 -0.20339,0.123039 -0.13309,0.06026 -0.27621,0.08788 -0.14313,0.03013 -0.31388,0.03013 -0.40176,0 -0.67295,-0.248589 -0.27119,-0.24859 -0.27119,-0.635285 0,-0.308854 0.13811,-0.504712 0.1381,-0.195859 0.39171,-0.308854 0.25111,-0.112995 0.62273,-0.160704 0.37163,-0.04771 0.77088,-0.07031 v -0.01507 q 0,-0.233524 -0.19083,-0.321409 -0.19084,-0.0904 -0.56247,-0.0904 -0.22348,0 -0.47709,0.08035 -0.25361,0.07784 -0.3641,0.120528 h -0.0829 v -0.680482 q 0.14313,-0.03767 0.46454,-0.08789 0.32392,-0.05273 0.64784,-0.05273 0.77088,0 1.11237,0.238546 0.34401,0.236034 0.34401,0.743257 v 1.918409 h -0.89643 z"
           style="text-align:center;text-anchor:middle"
           id="path638" />
        <path
           d="m 112.95021,58.957146 q -0.14564,0.03766 -0.30886,0.05775 -0.16321,0.0226 -0.39925,0.0226 -0.52731,0 -0.78594,-0.213435 -0.25612,-0.213436 -0.25612,-0.730703 V 56.77508 h -0.37163 v -0.612686 h 0.37163 v -0.806033 h 0.90396 v 0.806033 h 0.84621 V 56.77508 H 112.104 v 0.99938 q 0,0.148149 0.003,0.258634 0.003,0.110484 0.0402,0.198369 0.0351,0.08788 0.12304,0.140617 0.0904,0.05022 0.26114,0.05022 0.0703,0 0.1833,-0.03013 0.11551,-0.03013 0.16071,-0.05524 h 0.0753 z"
           style="text-align:center;text-anchor:middle"
           id="path640" />
        <path
           d="m 116.37271,57.573582 q 0,0.695548 -0.40679,1.097309 -0.40427,0.39925 -1.13748,0.39925 -0.73322,0 -1.14,-0.39925 -0.40427,-0.401761 -0.40427,-1.097309 0,-0.700571 0.40678,-1.099821 0.4093,-0.39925 1.13749,-0.39925 0.73823,0 1.13999,0.401761 0.40428,0.401761 0.40428,1.09731 z m -1.11238,0.685504 q 0.0879,-0.107973 0.13057,-0.258633 0.0452,-0.153172 0.0452,-0.421849 0,-0.24859 -0.0452,-0.416827 -0.0452,-0.168238 -0.12555,-0.268678 -0.0803,-0.102951 -0.19334,-0.145638 -0.113,-0.04269 -0.24357,-0.04269 -0.13057,0 -0.23353,0.03515 -0.10044,0.03515 -0.19334,0.140616 -0.0829,0.09793 -0.13309,0.268678 -0.0477,0.170748 -0.0477,0.429382 0,0.231012 0.0427,0.401761 0.0427,0.168237 0.12555,0.271188 0.0803,0.09793 0.19084,0.143128 0.11299,0.0452 0.25612,0.0452 0.12304,0 0.23352,-0.04018 0.113,-0.04269 0.19084,-0.140617 z"
           style="text-align:center;text-anchor:middle"
           id="path642" />
        <path
           d="m 119.0645,57.023671 h -0.0803 q -0.0577,-0.02009 -0.18581,-0.03013 -0.12807,-0.01004 -0.21344,-0.01004 -0.19335,0 -0.3415,0.02511 -0.14815,0.02511 -0.31889,0.08537 v 1.888276 h -0.90397 v -2.81986 h 0.90397 v 0.414316 q 0.2988,-0.256122 0.51977,-0.338985 0.22097,-0.08537 0.40679,-0.08537 0.0477,0 0.10797,0.0025 0.0603,0.0025 0.10546,0.0075 z"
           style="text-align:center;text-anchor:middle"
           id="path644" />
        <path
           d="m 120.84983,57.985387 0.64282,-1.822991 h 0.92907 l -1.56687,3.854394 h -0.97929 l 0.44696,-1.054622 -1.09731,-2.799772 h 0.94916 z"
           style="text-align:center;text-anchor:middle"
           id="path646" />
      </g>
      <g
         aria-label="IDEAS"
         transform="scale(0.99028118,1.0098142)"
         id="text11007-4-9-1-3-4-2-5-6-7-4-2-5"
         style="font-weight:800;font-size:25.1531px;font-family:Montserrat;-inkscape-font-specification:'Montserrat, Ultra-Bold';fill:url(#linearGradient2627);stroke-width:1.471">
        <path
           d="M 62.507224,47.27639 H 51.797506 v -3.242392 h 2.996756 V 32.231201 H 51.797506 V 28.98881 h 10.709718 v 3.242391 h -2.996756 v 11.802797 h 2.996756 z"
           id="path649"
           style="fill:url(#linearGradient714)" />
        <path
           d="m 83.631897,38.151023 q 0,2.554611 -1.16677,4.581106 -1.16677,2.014213 -2.947629,3.09501 -1.338715,0.810598 -2.935347,1.129925 -1.596632,0.319326 -3.78279,0.319326 H 66.351423 V 28.98881 h 6.632165 q 2.235285,0 3.856481,0.380735 1.621195,0.368454 2.726556,1.056234 1.891395,1.154488 2.972193,3.119574 1.093079,1.952804 1.093079,4.60567 z m -4.87587,-0.03685 q 0,-1.805422 -0.663216,-3.082728 -0.650935,-1.289588 -2.075622,-2.014213 -0.724626,-0.356172 -1.486096,-0.47899 -0.749189,-0.1351 -2.272131,-0.1351 h -1.191333 v 11.446626 h 1.191333 q 1.682605,0 2.468639,-0.147382 0.786035,-0.159663 1.535224,-0.564962 1.289587,-0.736907 1.891395,-1.965086 0.601807,-1.24046 0.601807,-3.058165 z"
           id="path651"
           style="fill:url(#linearGradient716)" />
        <path
           d="M 99.92359,47.27639 H 86.696103 V 28.98881 H 99.92359 v 3.537154 h -8.535845 v 3.156419 h 7.921752 v 3.537155 h -7.921752 v 4.519698 h 8.535845 z"
           id="path653"
           style="fill:url(#linearGradient708)" />
        <path
           d="m 120.77806,47.27639 h -4.87587 l -1.26502,-3.696818 h -6.77955 l -1.26502,3.696818 h -4.75305 l 6.75498,-18.28758 h 5.42855 z m -7.2831,-7.049745 -2.24757,-6.558475 -2.24756,6.558475 z"
           id="path655"
           style="fill:url(#linearGradient710)" />
        <path
           d="m 138.04625,41.528514 q 0,2.701993 -2.29669,4.39688 -2.28442,1.682604 -6.21459,1.682604 -2.27213,0 -3.96701,-0.393017 -1.68261,-0.405299 -3.15642,-1.019388 v -4.384598 h 0.51583 q 1.46153,1.16677 3.26696,1.793141 1.8177,0.626371 3.48802,0.626371 0.42987,0 1.12993,-0.07369 0.70006,-0.07369 1.1422,-0.245635 0.5404,-0.221073 0.88429,-0.552681 0.35617,-0.331608 0.35617,-0.982543 0,-0.601807 -0.51583,-1.03167 -0.50355,-0.442144 -1.4861,-0.675498 -1.03167,-0.245636 -2.18615,-0.454426 -1.14221,-0.221072 -2.14932,-0.552681 -2.30897,-0.749189 -3.32836,-2.026494 -1.00711,-1.289588 -1.00711,-3.193265 0,-2.554612 2.28441,-4.163526 2.2967,-1.621195 5.89526,-1.621195 1.80542,0 3.56172,0.356171 1.76858,0.34389 3.05817,0.872007 v 4.212653 h -0.50356 q -1.10536,-0.884289 -2.71427,-1.473814 -1.59664,-0.601808 -3.26696,-0.601808 -0.58952,0 -1.17905,0.08597 -0.57724,0.07369 -1.11764,0.294762 -0.47899,0.184227 -0.82288,0.564963 -0.34389,0.368453 -0.34389,0.847443 0,0.724625 0.55268,1.117642 0.55268,0.380736 2.0879,0.700062 1.00711,0.208791 1.92824,0.405299 0.93342,0.196509 2.00193,0.540399 2.10019,0.68778 3.09501,1.879113 1.00711,1.179052 1.00711,3.070447 z"
           id="path657"
           style="fill:url(#linearGradient712)" />
      </g>
    </g>
  </g>
</svg>
