<?xml version="1.0" encoding="UTF-8" standalone="no"?>
<!-- Created with Inkscape (http://www.inkscape.org/) -->

<svg
   width="78.225945mm"
   height="12.413393mm"
   viewBox="0 0 78.225942 12.413393"
   version="1.1"
   id="svg7853"
   inkscape:version="1.1.1 (3bf5ae0d25, 2021-09-20)"
   sodipodi:docname="ideas-dark-weblogo.svg"
   xmlns:inkscape="http://www.inkscape.org/namespaces/inkscape"
   xmlns:sodipodi="http://sodipodi.sourceforge.net/DTD/sodipodi-0.dtd"
   xmlns:xlink="http://www.w3.org/1999/xlink"
   xmlns="http://www.w3.org/2000/svg"
   xmlns:svg="http://www.w3.org/2000/svg">
  <sodipodi:namedview
     id="namedview7855"
     pagecolor="#ffffff"
     bordercolor="#666666"
     borderopacity="1.0"
     inkscape:pageshadow="2"
     inkscape:pageopacity="0.0"
     inkscape:pagecheckerboard="0"
     inkscape:document-units="mm"
     showgrid="false"
     fit-margin-top="0"
     fit-margin-left="0"
     fit-margin-right="0"
     fit-margin-bottom="0"
     inkscape:zoom="0.65032267"
     inkscape:cx="319.07238"
     inkscape:cy="227.57933"
     inkscape:window-width="1440"
     inkscape:window-height="890"
     inkscape:window-x="-6"
     inkscape:window-y="-6"
     inkscape:window-maximized="1"
     inkscape:current-layer="layer1" />
  <defs
     id="defs7850">
    <linearGradient
       inkscape:collect="always"
       xlink:href="#linearGradient582614"
       id="linearGradient983"
       gradientUnits="userSpaceOnUse"
       gradientTransform="translate(196.27954,89.783869)"
       x1="12.285912"
       y1="47.368958"
       x2="46.326286"
       y2="31.728523" />
    <linearGradient
       x1="323.94"
       y1="307.37"
       x2="336.06"
       y2="278.94"
       gradientUnits="userSpaceOnUse"
       spreadMethod="pad"
       id="linearGradient582614">
      <stop
         style="stop-color:#34c563;stop-opacity:1"
         offset="0"
         id="stop582608" />
      <stop
         style="stop-opacity:1;stop-color:#4fd080"
         offset="0.19843249"
         id="stop582610" />
      <stop
         style="stop-opacity:1;stop-color:#2eaf76"
         offset="1"
         id="stop582612" />
    </linearGradient>
    <linearGradient
       inkscape:collect="always"
       xlink:href="#linearGradient110216"
       id="linearGradient2627-6"
       gradientUnits="userSpaceOnUse"
       gradientTransform="matrix(1.4706019,0,0,1.470602,-493.54276,573.56842)"
       x1="371.2037"
       y1="-363.70874"
       x2="423.16714"
       y2="-363.70874" />
    <linearGradient
       x1="323.94"
       y1="307.37"
       x2="336.06"
       y2="278.94"
       gradientUnits="userSpaceOnUse"
       spreadMethod="pad"
       id="linearGradient110216">
      <stop
         style="stop-color:#2eaf76;stop-opacity:1"
         offset="0"
         id="stop110210" />
      <stop
         style="stop-opacity:1;stop-color:#0f6e71"
         offset="0.5117954"
         id="stop110212" />
      <stop
         style="stop-opacity:1;stop-color:#00274c"
         offset="1"
         id="stop110214" />
    </linearGradient>
    <linearGradient
       inkscape:collect="always"
       xlink:href="#linearGradient110216"
       id="linearGradient989"
       gradientUnits="userSpaceOnUse"
       gradientTransform="matrix(1.4706019,0,0,1.470602,-494.07712,573.56842)"
       x1="371.2037"
       y1="-363.70874"
       x2="423.16714"
       y2="-363.70874" />
    <linearGradient
       inkscape:collect="always"
       xlink:href="#linearGradient110216"
       id="linearGradient7971"
       gradientUnits="userSpaceOnUse"
       gradientTransform="matrix(1.4706019,0,0,1.470602,-493.54276,573.56842)"
       x1="371.2037"
       y1="-363.70874"
       x2="423.16714"
       y2="-363.70874" />
    <linearGradient
       inkscape:collect="always"
       xlink:href="#linearGradient110216"
       id="linearGradient7973"
       gradientUnits="userSpaceOnUse"
       gradientTransform="matrix(1.4706019,0,0,1.470602,-493.54276,573.56842)"
       x1="371.2037"
       y1="-363.70874"
       x2="423.16714"
       y2="-363.70874" />
    <linearGradient
       inkscape:collect="always"
       xlink:href="#linearGradient110216"
       id="linearGradient7975"
       gradientUnits="userSpaceOnUse"
       gradientTransform="matrix(1.4706019,0,0,1.470602,-494.07712,573.56842)"
       x1="371.2037"
       y1="-363.70874"
       x2="423.16714"
       y2="-363.70874" />
    <linearGradient
       inkscape:collect="always"
       xlink:href="#linearGradient110216"
       id="linearGradient7977"
       gradientUnits="userSpaceOnUse"
       gradientTransform="matrix(1.4706019,0,0,1.470602,-494.07712,573.56842)"
       x1="371.2037"
       y1="-363.70874"
       x2="423.16714"
       y2="-363.70874" />
  </defs>
  <g
     inkscape:label="Layer 1"
     inkscape:groupmode="layer"
     id="layer1"
     transform="translate(-20.693886,-88.265266)">
    <g
       id="g1151"
       transform="matrix(0.62370957,0,0,0.62370957,-108.23234,14.474636)"
       inkscape:export-filename="G:\My Drive\IDEAS Lab\Templates\Logos\ideas-dark.png"
       inkscape:export-xdpi="600"
       inkscape:export-ydpi="600">
      <path
         class="st0"
         d="m 211.70364,121.54236 c -2.24614,-0.38934 -3.63005,-1.63784 -4.99489,-3.23308 2.45629,0.53949 4.85667,1.09489 7.26962,1.5918 6.0066,1.23688 12.01883,2.44707 18.02847,3.66932 0.60529,0.12304 1.2119,0.36483 1.812,0.34804 0.55936,-0.0158 0.85356,-0.62682 1.25695,-0.97788 2.1833,-1.90155 4.49747,-3.48561 7.59848,-3.27954 0.24872,0.0163 0.49655,0.068 0.74048,0.12176 1.07021,0.23704 1.14991,0.16844 0.9363,0.31219 -0.34489,0.23231 -0.67199,0.57454 -1.01515,0.809 -2.929,2.00051 -5.13874,4.6799 -7.26746,7.45868 -0.87436,1.14093 -2.21365,1.81379 -3.3848,2.64152 -1.93808,1.37024 -3.95372,2.62174 -6.0443,3.74977 -0.73831,0.39838 -2.26434,1.08586 -2.26434,1.08586 0,0 -0.85444,-0.66339 -1.19759,-1.07038 -1.83756,-2.17948 -3.81204,-4.1761 -6.50358,-5.31834 -0.091,-0.0387 -0.18631,-0.0675 -0.30373,-0.10926 2.74312,1.91962 4.77131,4.50608 6.95463,6.93809 0.0172,0.0189 -0.007,0.11573 -0.0325,0.12563 -3.03991,1.21579 -6.16648,2.0702 -9.4733,1.73162 -2.08452,-0.21339 -3.92598,-0.98391 -5.42037,-2.60754 -1.83278,-1.99104 -1.13216,-4.72464 -0.11266,-6.63652 0.93764,-1.75829 2.21019,-3.26448 3.78387,-4.96039 -1.12263,1.62449 -2.0581,2.97838 -2.71712,4.49791 -1.53252,3.53551 0.0776,6.2975 3.97234,6.78752 2.20108,0.27664 6.39785,-0.29384 7.53349,-1.0437 -1.1144,-0.18758 -2.19632,-0.36095 -3.21323,-0.82214 -1.43373,-0.65007 -1.96147,-2.02116 -2.71062,-3.22276 -0.47141,-0.75675 -1.01821,-1.4494 -1.74612,-1.98459 -0.0299,-0.0219 -0.0468,-0.0606 -0.0698,-0.0921 0.0256,-0.008 0.0537,-0.028 0.0762,-0.0228 2.38349,0.5296 5.02174,0.0288 7.1379,1.60471 1.13694,0.84667 1.82586,2.09343 2.44025,3.35526 0.0555,0.11444 0.0749,0.14153 0.20884,0.0594 2.13002,-1.30742 4.11792,-2.80716 6.05643,-4.37573 0.049,-0.0395 0.0892,-0.0895 0.13346,-0.13465 -0.0572,-0.0225 -0.11222,-0.0516 -0.17115,-0.0663 -2.27691,-0.55929 -4.55077,-1.13233 -6.83245,-1.67183 -3.48706,-0.82472 -6.89743,-1.8409 -9.9551,-3.77731 -0.39385,-0.24952 -0.79421,-0.48872 -1.1807,-0.749 -0.20451,-0.1381 -0.38519,-0.31105 -0.64818,-0.52658 5.84023,0.81817 11.3106,2.52159 16.05789,3.03301 0.67299,0.081 0.66783,0.0818 -0.006,0.002 -4.70072,-0.90924 -10.18945,-2.4208 -14.73279,-3.24032 z"
         id="path14772-8-1-5-3-8-6-4-8-3-4-6-8-5"
         style="fill:url(#linearGradient983);fill-opacity:1;stroke-width:0.0431748"
         sodipodi:nodetypes="ccccccccccccsccccccccccccccccccsccccccccccccc"
         inkscape:export-filename="IDEAS-Logo.png"
         inkscape:export-xdpi="600"
         inkscape:export-ydpi="600" />
      <g
         aria-label="IDEAS"
         transform="matrix(0.99028118,0,0,1.0098142,195.42461,89.783869)"
         id="text11007-4-9-1-3-4-2-5-6-7-4-2-5-21"
         style="font-weight:800;font-size:25.1531px;font-family:Montserrat;-inkscape-font-specification:'Montserrat, Ultra-Bold';fill:url(#linearGradient2627-6);stroke-width:1.471">
        <path
           d="M 62.507224,47.27639 H 51.797506 v -3.242392 h 2.996756 V 32.231201 H 51.797506 V 28.98881 h 10.709718 v 3.242391 h -2.996756 v 11.802797 h 2.996756 z"
           id="path649"
           style="fill:url(#linearGradient7971)" />
        <path
           d="m 83.631897,38.151023 q 0,2.554611 -1.16677,4.581106 -1.16677,2.014213 -2.947629,3.09501 -1.338715,0.810598 -2.935347,1.129925 -1.596632,0.319326 -3.78279,0.319326 H 66.351423 V 28.98881 h 6.632165 q 2.235285,0 3.856481,0.380735 1.621195,0.368454 2.726556,1.056234 1.891395,1.154488 2.972193,3.119574 1.093079,1.952804 1.093079,4.60567 z m -4.87587,-0.03685 q 0,-1.805422 -0.663216,-3.082728 -0.650935,-1.289588 -2.075622,-2.014213 -0.724626,-0.356172 -1.486096,-0.47899 -0.749189,-0.1351 -2.272131,-0.1351 h -1.191333 v 11.446626 h 1.191333 q 1.682605,0 2.468639,-0.147382 0.786035,-0.159663 1.535224,-0.564962 1.289587,-0.736907 1.891395,-1.965086 0.601807,-1.24046 0.601807,-3.058165 z"
           id="path651"
           style="fill:url(#linearGradient7973)" />
        <path
           d="M 99.92359,47.27639 H 86.696103 V 28.98881 H 99.92359 v 3.537154 h -8.535845 v 3.156419 h 7.921752 v 3.537155 h -7.921752 v 4.519698 h 8.535845 z"
           id="path653"
           style="fill:url(#linearGradient7975)" />
        <path
           d="m 120.77806,47.27639 h -4.87587 l -1.26502,-3.696818 h -6.77955 l -1.26502,3.696818 h -4.75305 l 6.75498,-18.28758 h 5.42855 z m -7.2831,-7.049745 -2.24757,-6.558475 -2.24756,6.558475 z"
           id="path655"
           style="fill:url(#linearGradient7977)" />
        <path
           d="m 138.04625,41.528514 q 0,2.701993 -2.29669,4.39688 -2.28442,1.682604 -6.21459,1.682604 -2.27213,0 -3.96701,-0.393017 -1.68261,-0.405299 -3.15642,-1.019388 v -4.384598 h 0.51583 q 1.46153,1.16677 3.26696,1.793141 1.8177,0.626371 3.48802,0.626371 0.42987,0 1.12993,-0.07369 0.70006,-0.07369 1.1422,-0.245635 0.5404,-0.221073 0.88429,-0.552681 0.35617,-0.331608 0.35617,-0.982543 0,-0.601807 -0.51583,-1.03167 -0.50355,-0.442144 -1.4861,-0.675498 -1.03167,-0.245636 -2.18615,-0.454426 -1.14221,-0.221072 -2.14932,-0.552681 -2.30897,-0.749189 -3.32836,-2.026494 -1.00711,-1.289588 -1.00711,-3.193265 0,-2.554612 2.28441,-4.163526 2.2967,-1.621195 5.89526,-1.621195 1.80542,0 3.56172,0.356171 1.76858,0.34389 3.05817,0.872007 v 4.212653 h -0.50356 q -1.10536,-0.884289 -2.71427,-1.473814 -1.59664,-0.601808 -3.26696,-0.601808 -0.58952,0 -1.17905,0.08597 -0.57724,0.07369 -1.11764,0.294762 -0.47899,0.184227 -0.82288,0.564963 -0.34389,0.368453 -0.34389,0.847443 0,0.724625 0.55268,1.117642 0.55268,0.380736 2.0879,0.700062 1.00711,0.208791 1.92824,0.405299 0.93342,0.196509 2.00193,0.540399 2.10019,0.68778 3.09501,1.879113 1.00711,1.179052 1.00711,3.070447 z"
           id="path657"
           style="fill:url(#linearGradient989)" />
      </g>
    </g>
  </g>
</svg>
