<?xml version="1.0" encoding="UTF-8" standalone="no"?>
<!-- Created with Inkscape (http://www.inkscape.org/) -->

<svg
   width="126.10023mm"
   height="34.737259mm"
   viewBox="0 0 126.10023 34.737259"
   version="1.1"
   id="svg7244"
   inkscape:version="1.1.1 (3bf5ae0d25, 2021-09-20)"
   sodipodi:docname="ideas-full-light.svg"
   xmlns:inkscape="http://www.inkscape.org/namespaces/inkscape"
   xmlns:sodipodi="http://sodipodi.sourceforge.net/DTD/sodipodi-0.dtd"
   xmlns:xlink="http://www.w3.org/1999/xlink"
   xmlns="http://www.w3.org/2000/svg"
   xmlns:svg="http://www.w3.org/2000/svg">
  <sodipodi:namedview
     id="namedview7246"
     pagecolor="#ffffff"
     bordercolor="#666666"
     borderopacity="1.0"
     inkscape:pageshadow="2"
     inkscape:pageopacity="0.0"
     inkscape:pagecheckerboard="0"
     inkscape:document-units="mm"
     showgrid="false"
     fit-margin-top="0"
     fit-margin-left="0"
     fit-margin-right="0"
     fit-margin-bottom="0"
     inkscape:zoom="0.65032267"
     inkscape:cx="368.27872"
     inkscape:cy="221.42854"
     inkscape:window-width="1440"
     inkscape:window-height="890"
     inkscape:window-x="-6"
     inkscape:window-y="-6"
     inkscape:window-maximized="1"
     inkscape:current-layer="layer1" />
  <defs
     id="defs7241">
    <linearGradient
       inkscape:collect="always"
       xlink:href="#linearGradient590050"
       id="linearGradient587916"
       gradientUnits="userSpaceOnUse"
       gradientTransform="translate(11.385633,60.686367)"
       x1="16.768385"
       y1="45.633808"
       x2="46.326286"
       y2="31.728523" />
    <linearGradient
       x1="323.94"
       y1="307.37"
       x2="336.06"
       y2="278.94"
       gradientUnits="userSpaceOnUse"
       spreadMethod="pad"
       id="linearGradient590050">
      <stop
         style="stop-color:#56f389;stop-opacity:1"
         offset="0"
         id="stop590044" />
      <stop
         style="stop-opacity:1;stop-color:#4fd080"
         offset="0.3584049"
         id="stop590046" />
      <stop
         style="stop-opacity:1;stop-color:#42cd88"
         offset="1"
         id="stop590048" />
    </linearGradient>
    <linearGradient
       inkscape:collect="always"
       xlink:href="#linearGradient503156"
       id="linearGradient458693"
       gradientUnits="userSpaceOnUse"
       gradientTransform="matrix(1.4706019,0,0,1.470602,-466.39836,740.6868)"
       x1="369.80069"
       y1="-357.87521"
       x2="427.33728"
       y2="-368.77191" />
    <linearGradient
       x1="323.94"
       y1="307.37"
       x2="336.06"
       y2="278.94"
       gradientUnits="userSpaceOnUse"
       spreadMethod="pad"
       id="linearGradient503156">
      <stop
         style="stop-color:#51d17f;stop-opacity:1"
         offset="0"
         id="stop503150" />
      <stop
         style="stop-opacity:1;stop-color:#16c0a3"
         offset="0.62231451"
         id="stop503152" />
      <stop
         style="stop-opacity:1;stop-color:#4f8fd1"
         offset="1"
         id="stop503154" />
    </linearGradient>
    <linearGradient
       inkscape:collect="always"
       xlink:href="#linearGradient503156"
       id="linearGradient2372"
       gradientUnits="userSpaceOnUse"
       gradientTransform="matrix(1.4706019,0,0,1.470602,-466.93272,740.6868)"
       x1="369.80069"
       y1="-357.87521"
       x2="427.33728"
       y2="-368.77191" />
    <linearGradient
       inkscape:collect="always"
       xlink:href="#linearGradient503156"
       id="linearGradient7572"
       gradientUnits="userSpaceOnUse"
       gradientTransform="matrix(1.4706019,0,0,1.470602,-466.39836,740.6868)"
       x1="369.80069"
       y1="-357.87521"
       x2="427.33728"
       y2="-368.77191" />
    <linearGradient
       inkscape:collect="always"
       xlink:href="#linearGradient503156"
       id="linearGradient7574"
       gradientUnits="userSpaceOnUse"
       gradientTransform="matrix(1.4706019,0,0,1.470602,-466.39836,740.6868)"
       x1="369.80069"
       y1="-357.87521"
       x2="427.33728"
       y2="-368.77191" />
    <linearGradient
       inkscape:collect="always"
       xlink:href="#linearGradient503156"
       id="linearGradient7576"
       gradientUnits="userSpaceOnUse"
       gradientTransform="matrix(1.4706019,0,0,1.470602,-466.93272,740.6868)"
       x1="369.80069"
       y1="-357.87521"
       x2="427.33728"
       y2="-368.77191" />
    <linearGradient
       inkscape:collect="always"
       xlink:href="#linearGradient503156"
       id="linearGradient7578"
       gradientUnits="userSpaceOnUse"
       gradientTransform="matrix(1.4706019,0,0,1.470602,-466.93272,740.6868)"
       x1="369.80069"
       y1="-357.87521"
       x2="427.33728"
       y2="-368.77191" />
  </defs>
  <g
     inkscape:label="Layer 1"
     inkscape:groupmode="layer"
     id="layer1"
     transform="translate(-7.7416627,-90.03959)">
    <g
       id="g6340"
       inkscape:export-filename="G:\My Drive\IDEAS Lab\Templates\Logos\ideas-full-light.png"
       inkscape:export-xdpi="600"
       inkscape:export-ydpi="600"
       transform="translate(-19.927788,-20.540796)">
      <g
         aria-label="Integrated Design of Environmentally-friendly Aerospace Systems Laboratory"
         transform="matrix(0.94611503,0,0,1.0569539,-49.895437,-20.039971)"
         id="text12537-1-5-1-0-9-6-1-5-3-8-8-5-0-3"
         style="font-weight:600;font-size:5.12857px;font-family:Montserrat;-inkscape-font-specification:'Montserrat, Semi-Bold';fill:#34c991;stroke-width:1.34927">
        <path
           d="m 84.166162,149.0049 h -2.183649 v -0.66111 h 0.611021 v -2.40652 h -0.611021 v -0.6611 h 2.183649 v 0.6611 h -0.611021 v 2.40652 h 0.611021 z"
           style="text-align:center;text-anchor:middle"
           id="path5141" />
        <path
           d="m 87.724608,149.0049 h -0.906515 v -1.39483 q 0,-0.17029 -0.01753,-0.33807 -0.01753,-0.17028 -0.0601,-0.25042 -0.05008,-0.0926 -0.147747,-0.13522 -0.09516,-0.0426 -0.267947,-0.0426 -0.122705,0 -0.250419,0.0401 -0.125209,0.0401 -0.272956,0.12772 v 1.99333 h -0.901506 v -2.8122 h 0.901506 v 0.31052 q 0.240402,-0.18782 0.46077,-0.28798 0.222872,-0.10017 0.493324,-0.10017 0.455762,0 0.711189,0.26544 0.257931,0.26545 0.257931,0.79383 z"
           style="text-align:center;text-anchor:middle"
           id="path5143" />
        <path
           d="m 90.351498,148.97986 q -0.145243,0.0376 -0.308015,0.0576 -0.162772,0.0225 -0.398165,0.0225 -0.525879,0 -0.78381,-0.21286 -0.255427,-0.21285 -0.255427,-0.72871 v -1.3147 h -0.370619 v -0.61102 h 0.370619 v -0.80384 h 0.901506 v 0.80384 h 0.843911 v 0.61102 h -0.843911 v 0.99667 q 0,0.14774 0.0025,0.25793 0.0025,0.11018 0.04007,0.19783 0.03506,0.0876 0.122705,0.14023 0.09015,0.0501 0.260435,0.0501 0.07012,0 0.182805,-0.03 0.115193,-0.0301 0.160268,-0.0551 h 0.07513 z"
           style="text-align:center;text-anchor:middle"
           id="path5145" />
        <path
           d="m 93.659526,147.76533 h -2.063449 q 0.02003,0.33055 0.250419,0.50584 0.232889,0.17529 0.683642,0.17529 0.285477,0 0.553425,-0.10267 0.267948,-0.10267 0.423207,-0.22036 h 0.100168 v 0.7237 q -0.305511,0.12271 -0.575963,0.1778 -0.270452,0.0551 -0.5985,0.0551 -0.846414,0 -1.297168,-0.38063 -0.450753,-0.38064 -0.450753,-1.08431 0,-0.69617 0.425712,-1.10185 0.428215,-0.40818 1.171958,-0.40818 0.686147,0 1.031724,0.34808 0.345578,0.34558 0.345578,0.99667 z m -0.896499,-0.52839 q -0.0075,-0.28297 -0.140234,-0.42571 -0.132722,-0.14274 -0.41319,-0.14274 -0.260436,0 -0.428216,0.13523 -0.16778,0.13523 -0.187814,0.43322 z"
           style="text-align:center;text-anchor:middle"
           id="path5147" />
        <path
           d="m 97.030158,148.68186 q 0,0.39566 -0.112688,0.66611 -0.112689,0.27045 -0.315527,0.42321 -0.202839,0.15526 -0.490821,0.22287 -0.285477,0.0701 -0.646079,0.0701 -0.29299,0 -0.578467,-0.0351 -0.282973,-0.0351 -0.49082,-0.0851 v -0.70368 h 0.110184 q 0.165276,0.0651 0.403174,0.1177 0.237897,0.0551 0.425711,0.0551 0.250419,0 0.405678,-0.0476 0.157764,-0.0451 0.240402,-0.13022 0.07763,-0.0801 0.112688,-0.20534 0.03506,-0.12521 0.03506,-0.3005 v -0.0526 q -0.162772,0.13272 -0.360603,0.21035 -0.197831,0.0776 -0.440736,0.0776 -0.590988,0 -0.911524,-0.35559 -0.320535,-0.3556 -0.320535,-1.08181 0,-0.34808 0.09766,-0.60101 0.09766,-0.25292 0.27546,-0.44073 0.165276,-0.17529 0.405678,-0.27296 0.242906,-0.0977 0.495829,-0.0977 0.227881,0 0.41319,0.0551 0.187814,0.0526 0.340569,0.14775 l 0.03256,-0.12521 h 0.87396 z m -0.901506,-0.56344 v -1.27463 q -0.07763,-0.0326 -0.190318,-0.0501 -0.112689,-0.02 -0.202839,-0.02 -0.355595,0 -0.533392,0.20534 -0.177797,0.20284 -0.177797,0.56845 0,0.40568 0.150251,0.56595 0.152756,0.16027 0.450754,0.16027 0.135226,0 0.265443,-0.0426 0.130218,-0.0426 0.237898,-0.11269 z"
           style="text-align:center;text-anchor:middle"
           id="path5149" />
        <path
           d="m 99.919988,147.05163 h -0.08013 q -0.0576,-0.02 -0.18531,-0.03 -0.127713,-0.01 -0.212856,-0.01 -0.192822,0 -0.340569,0.025 -0.147747,0.025 -0.318031,0.0851 v 1.88315 h -0.901507 v -2.8122 h 0.901507 v 0.41319 q 0.297998,-0.25543 0.518366,-0.33807 0.220368,-0.0851 0.405678,-0.0851 0.04758,0 0.10768,0.003 0.0601,0.002 0.105176,0.008 z"
           style="text-align:center;text-anchor:middle"
           id="path5151" />
        <path
           d="m 102.13369,148.27117 v -0.58598 q -0.18281,0.015 -0.39567,0.0426 -0.21285,0.0251 -0.32303,0.0601 -0.13523,0.0426 -0.20785,0.12521 -0.0701,0.0801 -0.0701,0.21286 0,0.0876 0.015,0.14274 0.015,0.0551 0.0751,0.10517 0.0576,0.0501 0.13773,0.0751 0.0801,0.0225 0.25042,0.0225 0.13523,0 0.27296,-0.0551 0.14023,-0.0551 0.24541,-0.14524 z m 0,0.43573 q -0.0726,0.0551 -0.18031,0.13272 -0.10768,0.0776 -0.20283,0.12271 -0.13273,0.0601 -0.27546,0.0876 -0.14274,0.03 -0.31303,0.03 -0.40067,0 -0.67112,-0.24791 -0.27045,-0.24791 -0.27045,-0.63356 0,-0.30801 0.13773,-0.50334 0.13773,-0.19533 0.39065,-0.30802 0.25042,-0.11268 0.62104,-0.16026 0.37062,-0.0476 0.76878,-0.0701 v -0.015 q 0,-0.23288 -0.19031,-0.32053 -0.19032,-0.0901 -0.56094,-0.0901 -0.22287,0 -0.4758,0.0801 -0.25292,0.0776 -0.3631,0.1202 h -0.0826 v -0.67863 q 0.14274,-0.0376 0.46327,-0.0876 0.32304,-0.0526 0.64608,-0.0526 0.76879,0 1.10936,0.2379 0.34307,0.2354 0.34307,0.74124 v 1.9132 h -0.89399 z"
           style="text-align:center;text-anchor:middle"
           id="path5153" />
        <path
           d="m 105.65457,148.97986 q -0.14524,0.0376 -0.30802,0.0576 -0.16277,0.0225 -0.39816,0.0225 -0.52588,0 -0.78381,-0.21286 -0.25543,-0.21285 -0.25543,-0.72871 v -1.3147 h -0.37062 v -0.61102 h 0.37062 v -0.80384 h 0.90151 v 0.80384 h 0.84391 v 0.61102 h -0.84391 v 0.99667 q 0,0.14774 0.002,0.25793 0.003,0.11018 0.0401,0.19783 0.0351,0.0876 0.12271,0.14023 0.0902,0.0501 0.26043,0.0501 0.0701,0 0.18281,-0.03 0.11519,-0.0301 0.16026,-0.0551 h 0.0751 z"
           style="text-align:center;text-anchor:middle"
           id="path5155" />
        <path
           d="m 108.9626,147.76533 h -2.06345 q 0.02,0.33055 0.25042,0.50584 0.23289,0.17529 0.68364,0.17529 0.28548,0 0.55343,-0.10267 0.26794,-0.10267 0.4232,-0.22036 h 0.10017 v 0.7237 q -0.30551,0.12271 -0.57596,0.1778 -0.27045,0.0551 -0.5985,0.0551 -0.84642,0 -1.29717,-0.38063 -0.45075,-0.38064 -0.45075,-1.08431 0,-0.69617 0.42571,-1.10185 0.42821,-0.40818 1.17196,-0.40818 0.68614,0 1.03172,0.34808 0.34558,0.34558 0.34558,0.99667 z m -0.8965,-0.52839 q -0.008,-0.28297 -0.14023,-0.42571 -0.13273,-0.14274 -0.4132,-0.14274 -0.26043,0 -0.42821,0.13523 -0.16778,0.13523 -0.18781,0.43322 z"
           style="text-align:center;text-anchor:middle"
           id="path5157" />
        <path
           d="m 112.33323,149.0049 h -0.90151 v -0.29299 q -0.23289,0.19032 -0.43572,0.28047 -0.20284,0.0901 -0.46829,0.0901 -0.51335,0 -0.82137,-0.39566 -0.30801,-0.39566 -0.30801,-1.06679 0,-0.35809 0.10267,-0.63355 0.10517,-0.27797 0.28547,-0.4758 0.17029,-0.18781 0.41319,-0.29049 0.24291,-0.10517 0.48582,-0.10517 0.25292,0 0.41319,0.0551 0.16277,0.0526 0.33305,0.13523 v -1.197 h 0.90151 z m -0.90151,-0.7763 v -1.3798 q -0.0952,-0.0401 -0.20033,-0.0576 -0.10518,-0.0175 -0.19282,-0.0175 -0.3556,0 -0.53339,0.22287 -0.1778,0.22037 -0.1778,0.61353 0,0.41319 0.14274,0.601 0.14274,0.18531 0.45826,0.18531 0.12271,0 0.26044,-0.0451 0.13773,-0.0476 0.2429,-0.12271 z"
           style="text-align:center;text-anchor:middle"
           id="path5159" />
        <path
           d="m 118.51105,147.14429 q 0,0.52087 -0.2379,0.93406 -0.23789,0.41069 -0.601,0.63105 -0.27296,0.16528 -0.5985,0.23039 -0.32554,0.0651 -0.77129,0.0651 h -1.3147 v -3.72873 h 1.35226 q 0.45577,0 0.78632,0.0776 0.33055,0.0751 0.55593,0.21536 0.38564,0.23539 0.60601,0.63606 0.22287,0.39817 0.22287,0.93907 z m -0.99416,-0.008 q 0,-0.36812 -0.13522,-0.62855 -0.13273,-0.26294 -0.42321,-0.41069 -0.14775,-0.0726 -0.30301,-0.0977 -0.15275,-0.0275 -0.46327,-0.0275 h -0.24291 v 2.3339 h 0.24291 q 0.34307,0 0.50334,-0.03 0.16027,-0.0326 0.31302,-0.11519 0.26294,-0.15025 0.38565,-0.40067 0.1227,-0.25292 0.1227,-0.62354 z"
           style="text-align:center;text-anchor:middle"
           id="path5161" />
        <path
           d="m 121.96432,147.76533 h -2.06344 q 0.02,0.33055 0.25041,0.50584 0.23289,0.17529 0.68365,0.17529 0.28547,0 0.55342,-0.10267 0.26795,-0.10267 0.42321,-0.22036 h 0.10017 v 0.7237 q -0.30551,0.12271 -0.57597,0.1778 -0.27045,0.0551 -0.5985,0.0551 -0.84641,0 -1.29716,-0.38063 -0.45076,-0.38064 -0.45076,-1.08431 0,-0.69617 0.42571,-1.10185 0.42822,-0.40818 1.17196,-0.40818 0.68615,0 1.03173,0.34808 0.34557,0.34558 0.34557,0.99667 z m -0.89649,-0.52839 q -0.008,-0.28297 -0.14024,-0.42571 -0.13272,-0.14274 -0.41319,-0.14274 -0.26043,0 -0.42821,0.13523 -0.16779,0.13523 -0.18782,0.43322 z"
           style="text-align:center;text-anchor:middle"
           id="path5163" />
        <path
           d="m 125.04447,148.11341 q 0,0.43573 -0.39065,0.70367 -0.39065,0.26545 -1.06929,0.26545 -0.37562,0 -0.68114,-0.0701 -0.30551,-0.0701 -0.49082,-0.15526 v -0.74124 h 0.0826 q 0.0676,0.0476 0.15526,0.10518 0.0902,0.0551 0.25292,0.1202 0.14024,0.0576 0.31804,0.10017 0.17779,0.0401 0.38063,0.0401 0.26545,0 0.39316,-0.0576 0.12771,-0.0601 0.12771,-0.1753 0,-0.10267 -0.0751,-0.14774 -0.0751,-0.0476 -0.28548,-0.0901 -0.10017,-0.0225 -0.27296,-0.0476 -0.17028,-0.0275 -0.31051,-0.0651 -0.38315,-0.10017 -0.56845,-0.31052 -0.18531,-0.21286 -0.18531,-0.52838 0,-0.40568 0.38314,-0.67363 0.38564,-0.27045 1.05175,-0.27045 0.31553,0 0.60351,0.0651 0.29049,0.0626 0.45326,0.13522 v 0.71119 h -0.0776 q -0.20034,-0.13773 -0.45827,-0.22287 -0.25542,-0.0876 -0.51836,-0.0876 -0.21787,0 -0.36812,0.0601 -0.14774,0.0601 -0.14774,0.17029 0,0.10017 0.0676,0.15275 0.0676,0.0526 0.31803,0.10518 0.13773,0.0276 0.29549,0.0551 0.16027,0.025 0.32054,0.0651 0.35559,0.0927 0.52588,0.29299 0.17028,0.19783 0.17028,0.49583 z"
           style="text-align:center;text-anchor:middle"
           id="path5165" />
        <path
           d="m 126.54448,149.0049 h -0.90151 v -2.8122 h 0.90151 z m 0.025,-3.21287 h -0.95159 v -0.68364 h 0.95159 z"
           style="text-align:center;text-anchor:middle"
           id="path5167" />
        <path
           d="m 130.13047,148.68186 q 0,0.39566 -0.11269,0.66611 -0.11269,0.27045 -0.31552,0.42321 -0.20284,0.15526 -0.49082,0.22287 -0.28548,0.0701 -0.64608,0.0701 -0.29299,0 -0.57847,-0.0351 -0.28297,-0.0351 -0.49082,-0.0851 v -0.70368 h 0.11018 q 0.16528,0.0651 0.40318,0.1177 0.23789,0.0551 0.42571,0.0551 0.25042,0 0.40568,-0.0476 0.15776,-0.0451 0.2404,-0.13022 0.0776,-0.0801 0.11269,-0.20534 0.0351,-0.12521 0.0351,-0.3005 v -0.0526 q -0.16277,0.13272 -0.3606,0.21035 -0.19783,0.0776 -0.44073,0.0776 -0.59099,0 -0.91153,-0.35559 -0.32053,-0.3556 -0.32053,-1.08181 0,-0.34808 0.0977,-0.60101 0.0977,-0.25292 0.27546,-0.44073 0.16528,-0.17529 0.40568,-0.27296 0.2429,-0.0977 0.49583,-0.0977 0.22788,0 0.41319,0.0551 0.18781,0.0526 0.34057,0.14775 l 0.0325,-0.12521 h 0.87396 z m -0.90151,-0.56344 v -1.27463 q -0.0776,-0.0326 -0.19031,-0.0501 -0.11269,-0.02 -0.20284,-0.02 -0.3556,0 -0.53339,0.20534 -0.1778,0.20284 -0.1778,0.56845 0,0.40568 0.15025,0.56595 0.15276,0.16027 0.45075,0.16027 0.13523,0 0.26545,-0.0426 0.13021,-0.0426 0.23789,-0.11269 z"
           style="text-align:center;text-anchor:middle"
           id="path5169" />
        <path
           d="m 133.80661,149.0049 h -0.90651 v -1.39483 q 0,-0.17029 -0.0175,-0.33807 -0.0175,-0.17028 -0.0601,-0.25042 -0.0501,-0.0926 -0.14775,-0.13522 -0.0952,-0.0426 -0.26795,-0.0426 -0.1227,0 -0.25041,0.0401 -0.12521,0.0401 -0.27296,0.12772 v 1.99333 h -0.90151 v -2.8122 h 0.90151 v 0.31052 q 0.2404,-0.18782 0.46077,-0.28798 0.22287,-0.10017 0.49332,-0.10017 0.45577,0 0.71119,0.26544 0.25793,0.26545 0.25793,0.79383 z"
           style="text-align:center;text-anchor:middle"
           id="path5171" />
        <path
           d="m 139.26323,147.60005 q 0,0.69366 -0.40568,1.09433 -0.40317,0.39816 -1.13439,0.39816 -0.73122,0 -1.1369,-0.39816 -0.40317,-0.40067 -0.40317,-1.09433 0,-0.69867 0.40567,-1.09683 0.40819,-0.39817 1.1344,-0.39817 0.73623,0 1.1369,0.40067 0.40317,0.40067 0.40317,1.09433 z m -1.10935,0.68364 q 0.0877,-0.10768 0.13022,-0.25793 0.0451,-0.15275 0.0451,-0.4207 0,-0.24792 -0.0451,-0.4157 -0.0451,-0.16778 -0.12521,-0.26794 -0.0801,-0.10268 -0.19282,-0.14525 -0.11269,-0.0426 -0.24291,-0.0426 -0.13022,0 -0.23289,0.0351 -0.10017,0.0351 -0.19282,0.14024 -0.0826,0.0977 -0.13272,0.26794 -0.0476,0.17029 -0.0476,0.42822 0,0.23038 0.0426,0.40067 0.0426,0.16778 0.12521,0.27045 0.0801,0.0977 0.19031,0.14274 0.11269,0.0451 0.25543,0.0451 0.12271,0 0.23289,-0.0401 0.11269,-0.0426 0.19032,-0.14024 z"
           style="text-align:center;text-anchor:middle"
           id="path5173" />
        <path
           d="m 141.73236,145.76949 h -0.0676 q -0.0601,-0.0175 -0.15776,-0.0401 -0.0952,-0.0225 -0.20534,-0.0225 -0.26545,0 -0.36061,0.0952 -0.0927,0.0951 -0.0927,0.36811 v 0.0225 h 0.69616 v 0.61102 h -0.66611 v 2.20118 h -0.90151 v -2.20118 h -0.38564 v -0.61102 h 0.38564 v -0.0776 q 0,-0.51586 0.27296,-0.77379 0.27546,-0.25794 0.83139,-0.25794 0.20033,0 0.36311,0.015 0.16277,0.0125 0.28798,0.0351 z"
           style="text-align:center;text-anchor:middle"
           id="path5175" />
        <path
           d="m 146.57545,149.0049 h -2.69701 v -3.72873 h 2.69701 v 0.7212 h -1.74041 v 0.64358 h 1.6152 v 0.7212 h -1.6152 v 0.92154 h 1.74041 z"
           style="text-align:center;text-anchor:middle"
           id="path5177" />
        <path
           d="m 150.15644,149.0049 h -0.90652 v -1.39483 q 0,-0.17029 -0.0175,-0.33807 -0.0175,-0.17028 -0.0601,-0.25042 -0.0501,-0.0926 -0.14775,-0.13522 -0.0951,-0.0426 -0.26794,-0.0426 -0.12271,0 -0.25042,0.0401 -0.12521,0.0401 -0.27296,0.12772 v 1.99333 h -0.9015 v -2.8122 h 0.9015 v 0.31052 q 0.2404,-0.18782 0.46077,-0.28798 0.22287,-0.10017 0.49333,-0.10017 0.45576,0 0.71118,0.26544 0.25794,0.26545 0.25794,0.79383 z"
           style="text-align:center;text-anchor:middle"
           id="path5179" />
        <path
           d="m 153.81755,146.1927 -1.08431,2.8122 h -1.02171 l -1.0768,-2.8122 h 0.9541 l 0.65108,1.93323 0.64358,-1.93323 z"
           style="text-align:center;text-anchor:middle"
           id="path5181" />
        <path
           d="m 155.21989,149.0049 h -0.9015 v -2.8122 h 0.9015 z m 0.0251,-3.21287 h -0.95159 v -0.68364 h 0.95159 z"
           style="text-align:center;text-anchor:middle"
           id="path5183" />
        <path
           d="m 158.10972,147.05163 h -0.0801 q -0.0576,-0.02 -0.18531,-0.03 -0.12771,-0.01 -0.21286,-0.01 -0.19282,0 -0.34057,0.025 -0.14774,0.025 -0.31803,0.0851 v 1.88315 h -0.9015 v -2.8122 h 0.9015 v 0.41319 q 0.298,-0.25543 0.51837,-0.33807 0.22037,-0.0851 0.40568,-0.0851 0.0476,0 0.10768,0.003 0.0601,0.002 0.10517,0.008 z"
           style="text-align:center;text-anchor:middle"
           id="path5185" />
        <path
           d="m 161.49538,147.60005 q 0,0.69366 -0.40567,1.09433 -0.40318,0.39816 -1.1344,0.39816 -0.73122,0 -1.1369,-0.39816 -0.40317,-0.40067 -0.40317,-1.09433 0,-0.69867 0.40567,-1.09683 0.40819,-0.39817 1.1344,-0.39817 0.73623,0 1.1369,0.40067 0.40317,0.40067 0.40317,1.09433 z m -1.10935,0.68364 q 0.0876,-0.10768 0.13022,-0.25793 0.0451,-0.15275 0.0451,-0.4207 0,-0.24792 -0.0451,-0.4157 -0.0451,-0.16778 -0.12521,-0.26794 -0.0801,-0.10268 -0.19282,-0.14525 -0.11269,-0.0426 -0.24291,-0.0426 -0.13022,0 -0.23289,0.0351 -0.10017,0.0351 -0.19282,0.14024 -0.0826,0.0977 -0.13272,0.26794 -0.0476,0.17029 -0.0476,0.42822 0,0.23038 0.0426,0.40067 0.0426,0.16778 0.12521,0.27045 0.0801,0.0977 0.19032,0.14274 0.11268,0.0451 0.25542,0.0451 0.12271,0 0.23289,-0.0401 0.11269,-0.0426 0.19032,-0.14024 z"
           style="text-align:center;text-anchor:middle"
           id="path5187" />
        <path
           d="m 164.96618,149.0049 h -0.90651 v -1.39483 q 0,-0.17029 -0.0175,-0.33807 -0.0175,-0.17028 -0.0601,-0.25042 -0.0501,-0.0926 -0.14775,-0.13522 -0.0952,-0.0426 -0.26795,-0.0426 -0.1227,0 -0.25042,0.0401 -0.12521,0.0401 -0.27295,0.12772 v 1.99333 h -0.90151 v -2.8122 h 0.90151 v 0.31052 q 0.2404,-0.18782 0.46077,-0.28798 0.22287,-0.10017 0.49332,-0.10017 0.45576,0 0.71119,0.26544 0.25793,0.26545 0.25793,0.79383 z"
           style="text-align:center;text-anchor:middle"
           id="path5189" />
        <path
           d="m 168.54467,147.01157 v 1.99333 h -0.90652 v -1.40485 q 0,-0.20534 -0.01,-0.34808 -0.01,-0.14524 -0.0551,-0.23539 -0.0451,-0.0902 -0.13773,-0.13022 -0.0901,-0.0426 -0.25542,-0.0426 -0.13273,0 -0.25794,0.0551 -0.1252,0.0526 -0.22537,0.11269 v 1.99333 h -0.90151 v -2.8122 h 0.90151 v 0.31052 q 0.23289,-0.18281 0.44574,-0.28548 0.21286,-0.10267 0.47079,-0.10267 0.27796,0 0.49082,0.12521 0.21286,0.1227 0.33306,0.36311 0.27045,-0.22789 0.52588,-0.3581 0.25542,-0.13022 0.50083,-0.13022 0.45576,0 0.69116,0.27296 0.23789,0.27295 0.23789,0.78631 v 1.83056 h -0.90651 v -1.40485 q 0,-0.20785 -0.01,-0.35059 -0.008,-0.14273 -0.0526,-0.23288 -0.0426,-0.0902 -0.13523,-0.13022 -0.0927,-0.0426 -0.26044,-0.0426 -0.11268,0 -0.22036,0.0401 -0.10768,0.0376 -0.26294,0.12772 z"
           style="text-align:center;text-anchor:middle"
           id="path5191" />
        <path
           d="m 173.99127,147.76533 h -2.06345 q 0.02,0.33055 0.25042,0.50584 0.23289,0.17529 0.68364,0.17529 0.28548,0 0.55342,-0.10267 0.26795,-0.10267 0.42321,-0.22036 h 0.10017 v 0.7237 q -0.30551,0.12271 -0.57596,0.1778 -0.27046,0.0551 -0.5985,0.0551 -0.84642,0 -1.29717,-0.38063 -0.45075,-0.38064 -0.45075,-1.08431 0,-0.69617 0.42571,-1.10185 0.42821,-0.40818 1.17196,-0.40818 0.68614,0 1.03172,0.34808 0.34558,0.34558 0.34558,0.99667 z m -0.8965,-0.52839 q -0.008,-0.28297 -0.14024,-0.42571 -0.13272,-0.14274 -0.41319,-0.14274 -0.26043,0 -0.42821,0.13523 -0.16778,0.13523 -0.18782,0.43322 z"
           style="text-align:center;text-anchor:middle"
           id="path5193" />
        <path
           d="m 177.45204,149.0049 h -0.90651 v -1.39483 q 0,-0.17029 -0.0175,-0.33807 -0.0175,-0.17028 -0.0601,-0.25042 -0.0501,-0.0926 -0.14775,-0.13522 -0.0952,-0.0426 -0.26794,-0.0426 -0.12271,0 -0.25042,0.0401 -0.12521,0.0401 -0.27296,0.12772 v 1.99333 h -0.90151 v -2.8122 h 0.90151 v 0.31052 q 0.2404,-0.18782 0.46077,-0.28798 0.22287,-0.10017 0.49332,-0.10017 0.45577,0 0.71119,0.26544 0.25793,0.26545 0.25793,0.79383 z"
           style="text-align:center;text-anchor:middle"
           id="path5195" />
        <path
           d="m 180.07894,148.97986 q -0.14524,0.0376 -0.30802,0.0576 -0.16277,0.0225 -0.39816,0.0225 -0.52588,0 -0.78381,-0.21286 -0.25543,-0.21285 -0.25543,-0.72871 v -1.3147 h -0.37062 v -0.61102 h 0.37062 v -0.80384 h 0.90151 v 0.80384 h 0.84391 v 0.61102 h -0.84391 v 0.99667 q 0,0.14774 0.002,0.25793 0.003,0.11018 0.0401,0.19783 0.0351,0.0876 0.1227,0.14023 0.0902,0.0501 0.26044,0.0501 0.0701,0 0.18281,-0.03 0.11519,-0.0301 0.16026,-0.0551 h 0.0751 z"
           style="text-align:center;text-anchor:middle"
           id="path5197" />
        <path
           d="m 182.32018,148.27117 v -0.58598 q -0.1828,0.015 -0.39566,0.0426 -0.21285,0.0251 -0.32304,0.0601 -0.13522,0.0426 -0.20785,0.12521 -0.0701,0.0801 -0.0701,0.21286 0,0.0876 0.015,0.14274 0.015,0.0551 0.0751,0.10517 0.0576,0.0501 0.13773,0.0751 0.0801,0.0225 0.25042,0.0225 0.13522,0 0.27295,-0.0551 0.14024,-0.0551 0.24541,-0.14524 z m 0,0.43573 q -0.0726,0.0551 -0.1803,0.13272 -0.10768,0.0776 -0.20284,0.12271 -0.13272,0.0601 -0.27546,0.0876 -0.14274,0.03 -0.31302,0.03 -0.40067,0 -0.67112,-0.24791 -0.27045,-0.24791 -0.27045,-0.63356 0,-0.30801 0.13773,-0.50334 0.13773,-0.19533 0.39065,-0.30802 0.25042,-0.11268 0.62104,-0.16026 0.37062,-0.0476 0.76878,-0.0701 v -0.015 q 0,-0.23288 -0.19032,-0.32053 -0.19031,-0.0901 -0.56093,-0.0901 -0.22288,0 -0.4758,0.0801 -0.25292,0.0776 -0.36311,0.1202 h -0.0826 v -0.67863 q 0.14273,-0.0376 0.46327,-0.0876 0.32304,-0.0526 0.64608,-0.0526 0.76878,0 1.10935,0.2379 0.34308,0.2354 0.34308,0.74124 v 1.9132 h -0.894 z"
           style="text-align:center;text-anchor:middle"
           id="path5199" />
        <path
           d="m 184.94457,149.0049 h -0.9015 v -3.89651 h 0.9015 z"
           style="text-align:center;text-anchor:middle"
           id="path5201" />
        <path
           d="m 186.69749,149.0049 h -0.9015 v -3.89651 h 0.9015 z"
           style="text-align:center;text-anchor:middle"
           id="path5203" />
        <path
           d="m 188.81854,148.01074 0.64107,-1.81804 h 0.92655 l -1.56261,3.84392 h -0.97664 l 0.44575,-1.05176 -1.09433,-2.79216 h 0.94658 z"
           style="text-align:center;text-anchor:middle"
           id="path5205" />
        <path
           d="m 192.64744,147.70773 h -1.91069 v -0.7212 h 1.91069 z"
           style="text-align:center;text-anchor:middle"
           id="path5207" />
        <path
           d="m 195.17166,145.76949 h -0.0676 q -0.0601,-0.0175 -0.15777,-0.0401 -0.0951,-0.0225 -0.20534,-0.0225 -0.26544,0 -0.3606,0.0952 -0.0927,0.0951 -0.0927,0.36811 v 0.0225 h 0.69617 v 0.61102 h -0.66612 v 2.20118 h -0.9015 v -2.20118 h -0.38565 v -0.61102 h 0.38565 v -0.0776 q 0,-0.51586 0.27295,-0.77379 0.27546,-0.25794 0.83139,-0.25794 0.20034,0 0.36311,0.015 0.16277,0.0125 0.28798,0.0351 z"
           style="text-align:center;text-anchor:middle"
           id="path5209" />
        <path
           d="m 197.55314,147.05163 h -0.0801 q -0.0576,-0.02 -0.18531,-0.03 -0.12771,-0.01 -0.21285,-0.01 -0.19283,0 -0.34057,0.025 -0.14775,0.025 -0.31803,0.0851 v 1.88315 h -0.90151 v -2.8122 h 0.90151 v 0.41319 q 0.29799,-0.25543 0.51836,-0.33807 0.22037,-0.0851 0.40568,-0.0851 0.0476,0 0.10768,0.003 0.0601,0.002 0.10518,0.008 z"
           style="text-align:center;text-anchor:middle"
           id="path5211" />
        <path
           d="m 198.9655,149.0049 h -0.90151 v -2.8122 h 0.90151 z m 0.025,-3.21287 h -0.95159 v -0.68364 h 0.95159 z"
           style="text-align:center;text-anchor:middle"
           id="path5213" />
        <path
           d="m 202.58655,147.76533 h -2.06345 q 0.02,0.33055 0.25042,0.50584 0.23289,0.17529 0.68364,0.17529 0.28548,0 0.55343,-0.10267 0.26795,-0.10267 0.42321,-0.22036 h 0.10016 v 0.7237 q -0.30551,0.12271 -0.57596,0.1778 -0.27045,0.0551 -0.5985,0.0551 -0.84641,0 -1.29717,-0.38063 -0.45075,-0.38064 -0.45075,-1.08431 0,-0.69617 0.42571,-1.10185 0.42822,-0.40818 1.17196,-0.40818 0.68615,0 1.03172,0.34808 0.34558,0.34558 0.34558,0.99667 z m -0.8965,-0.52839 q -0.008,-0.28297 -0.14023,-0.42571 -0.13272,-0.14274 -0.41319,-0.14274 -0.26044,0 -0.42822,0.13523 -0.16778,0.13523 -0.18781,0.43322 z"
           style="text-align:center;text-anchor:middle"
           id="path5215" />
        <path
           d="m 206.04733,149.0049 h -0.90652 v -1.39483 q 0,-0.17029 -0.0175,-0.33807 -0.0175,-0.17028 -0.0601,-0.25042 -0.0501,-0.0926 -0.14774,-0.13522 -0.0952,-0.0426 -0.26795,-0.0426 -0.12271,0 -0.25042,0.0401 -0.12521,0.0401 -0.27296,0.12772 v 1.99333 h -0.9015 v -2.8122 h 0.9015 v 0.31052 q 0.24041,-0.18782 0.46077,-0.28798 0.22288,-0.10017 0.49333,-0.10017 0.45576,0 0.71119,0.26544 0.25793,0.26545 0.25793,0.79383 z"
           style="text-align:center;text-anchor:middle"
           id="path5217" />
        <path
           d="m 209.61079,149.0049 h -0.90151 v -0.29299 q -0.23289,0.19032 -0.43573,0.28047 -0.20284,0.0901 -0.46828,0.0901 -0.51336,0 -0.82137,-0.39566 -0.30802,-0.39566 -0.30802,-1.06679 0,-0.35809 0.10267,-0.63355 0.10518,-0.27797 0.28548,-0.4758 0.17029,-0.18781 0.41319,-0.29049 0.24291,-0.10517 0.48581,-0.10517 0.25293,0 0.41319,0.0551 0.16278,0.0526 0.33306,0.13523 v -1.197 h 0.90151 z m -0.90151,-0.7763 v -1.3798 q -0.0952,-0.0401 -0.20033,-0.0576 -0.10518,-0.0175 -0.19283,-0.0175 -0.35559,0 -0.53339,0.22287 -0.17779,0.22037 -0.17779,0.61353 0,0.41319 0.14273,0.601 0.14274,0.18531 0.45827,0.18531 0.1227,0 0.26044,-0.0451 0.13773,-0.0476 0.2429,-0.12271 z"
           style="text-align:center;text-anchor:middle"
           id="path5219" />
        <path
           d="m 211.36372,149.0049 h -0.90151 v -3.89651 h 0.90151 z"
           style="text-align:center;text-anchor:middle"
           id="path5221" />
        <path
           d="m 213.48476,148.01074 0.64107,-1.81804 h 0.92655 l -1.56261,3.84392 h -0.97663 l 0.44574,-1.05176 -1.09433,-2.79216 h 0.94658 z"
           style="text-align:center;text-anchor:middle"
           id="path5223" />
        <path
           d="m 107.72428,155.41561 h -0.99416 l -0.25793,-0.75376 h -1.38231 l -0.25793,0.75376 h -0.96912 l 1.3773,-3.72873 h 1.10685 z m -1.48498,-1.4374 -0.45827,-1.33724 -0.45826,1.33724 z"
           style="text-align:center;text-anchor:middle"
           id="path5225" />
        <path
           d="m 110.97972,154.17604 h -2.06345 q 0.02,0.33055 0.25042,0.50584 0.23289,0.1753 0.68364,0.1753 0.28548,0 0.55343,-0.10267 0.26794,-0.10268 0.4232,-0.22037 h 0.10017 v 0.72371 q -0.30551,0.1227 -0.57596,0.17779 -0.27045,0.0551 -0.5985,0.0551 -0.84642,0 -1.29717,-0.38064 -0.45075,-0.38064 -0.45075,-1.08431 0,-0.69617 0.42571,-1.10184 0.42821,-0.40819 1.17196,-0.40819 0.68614,0 1.03172,0.34809 0.34558,0.34557 0.34558,0.99666 z m -0.8965,-0.52838 q -0.008,-0.28298 -0.14023,-0.42572 -0.13273,-0.14273 -0.41319,-0.14273 -0.26044,0 -0.42822,0.13522 -0.16778,0.13523 -0.18781,0.43323 z"
           style="text-align:center;text-anchor:middle"
           id="path5227" />
        <path
           d="m 113.65419,153.46235 h -0.0801 q -0.0576,-0.02 -0.18531,-0.03 -0.12771,-0.01 -0.21285,-0.01 -0.19282,0 -0.34057,0.025 -0.14775,0.025 -0.31803,0.0851 v 1.88315 h -0.90151 v -2.8122 h 0.90151 v 0.41319 q 0.298,-0.25543 0.51836,-0.33806 0.22037,-0.0851 0.40568,-0.0851 0.0476,0 0.10768,0.003 0.0601,0.002 0.10518,0.008 z"
           style="text-align:center;text-anchor:middle"
           id="path5229" />
        <path
           d="m 117.03984,154.01076 q 0,0.69366 -0.40567,1.09433 -0.40318,0.39817 -1.1344,0.39817 -0.73122,0 -1.1369,-0.39817 -0.40317,-0.40067 -0.40317,-1.09433 0,-0.69866 0.40568,-1.09683 0.40818,-0.39817 1.13439,-0.39817 0.73623,0 1.1369,0.40067 0.40317,0.40067 0.40317,1.09433 z m -1.10935,0.68365 q 0.0876,-0.10768 0.13022,-0.25794 0.0451,-0.15275 0.0451,-0.4207 0,-0.24791 -0.0451,-0.41569 -0.0451,-0.16778 -0.12521,-0.26795 -0.0801,-0.10267 -0.19282,-0.14524 -0.11269,-0.0426 -0.24291,-0.0426 -0.13022,0 -0.23289,0.0351 -0.10017,0.0351 -0.19282,0.14024 -0.0826,0.0977 -0.13272,0.26795 -0.0476,0.17028 -0.0476,0.42821 0,0.23039 0.0426,0.40067 0.0426,0.16778 0.12521,0.27045 0.0801,0.0977 0.19032,0.14274 0.11269,0.0451 0.25542,0.0451 0.12271,0 0.23289,-0.0401 0.11269,-0.0426 0.19032,-0.14023 z"
           style="text-align:center;text-anchor:middle"
           id="path5231" />
        <path
           d="m 120.13001,154.52412 q 0,0.43573 -0.39065,0.70368 -0.39066,0.26544 -1.06929,0.26544 -0.37563,0 -0.68114,-0.0701 -0.30551,-0.0701 -0.49082,-0.15526 v -0.74123 h 0.0826 q 0.0676,0.0476 0.15526,0.10517 0.0902,0.0551 0.25292,0.1202 0.14024,0.0576 0.31803,0.10017 0.1778,0.0401 0.38064,0.0401 0.26544,0 0.39316,-0.0576 0.12771,-0.0601 0.12771,-0.17529 0,-0.10267 -0.0751,-0.14775 -0.0751,-0.0476 -0.28547,-0.0901 -0.10017,-0.0225 -0.27296,-0.0476 -0.17028,-0.0276 -0.31052,-0.0651 -0.38314,-0.10017 -0.56845,-0.31052 -0.18531,-0.21285 -0.18531,-0.52838 0,-0.40568 0.38314,-0.67363 0.38565,-0.27045 1.05176,-0.27045 0.31553,0 0.60351,0.0651 0.29048,0.0626 0.45326,0.13523 v 0.71118 h -0.0776 q -0.20034,-0.13773 -0.45827,-0.22287 -0.25543,-0.0876 -0.51837,-0.0876 -0.21786,0 -0.36811,0.0601 -0.14775,0.0601 -0.14775,0.17028 0,0.10017 0.0676,0.15276 0.0676,0.0526 0.31804,0.10517 0.13773,0.0275 0.29549,0.0551 0.16027,0.0251 0.32054,0.0651 0.35559,0.0927 0.52587,0.29299 0.17029,0.19783 0.17029,0.49583 z"
           style="text-align:center;text-anchor:middle"
           id="path5233" />
        <path
           d="m 123.66341,153.9707 q 0,0.34808 -0.10768,0.63355 -0.10517,0.28548 -0.27796,0.47079 -0.1803,0.19533 -0.40818,0.2955 -0.22788,0.10016 -0.48832,0.10016 -0.2404,0 -0.40818,-0.0526 -0.16778,-0.0501 -0.34307,-0.14273 v 1.17195 h -0.90151 v -3.84392 h 0.90151 v 0.29299 q 0.20784,-0.16528 0.4232,-0.26795 0.21787,-0.10267 0.50084,-0.10267 0.52588,0 0.81636,0.38565 0.29299,0.38564 0.29299,1.05927 z m -0.92905,0.0175 q 0,-0.41069 -0.14023,-0.596 -0.14024,-0.18531 -0.44324,-0.18531 -0.12772,0 -0.26294,0.0401 -0.13523,0.0376 -0.25793,0.11018 v 1.41487 q 0.0901,0.035 0.19282,0.0451 0.10267,0.01 0.20284,0.01 0.3581,0 0.53339,-0.20785 0.17529,-0.21035 0.17529,-0.63105 z"
           style="text-align:center;text-anchor:middle"
           id="path5235" />
        <path
           d="m 126.01735,154.68188 v -0.58597 q -0.18281,0.015 -0.39566,0.0426 -0.21286,0.025 -0.32304,0.0601 -0.13523,0.0426 -0.20785,0.12521 -0.0701,0.0801 -0.0701,0.21285 0,0.0876 0.015,0.14274 0.015,0.0551 0.0751,0.10518 0.0576,0.0501 0.13773,0.0751 0.0801,0.0225 0.25042,0.0225 0.13523,0 0.27296,-0.0551 0.14023,-0.0551 0.24541,-0.14525 z m 0,0.43573 q -0.0726,0.0551 -0.1803,0.13272 -0.10768,0.0776 -0.20284,0.12271 -0.13272,0.0601 -0.27546,0.0876 -0.14274,0.03 -0.31303,0.03 -0.40067,0 -0.67112,-0.24792 -0.27045,-0.24791 -0.27045,-0.63356 0,-0.30801 0.13773,-0.50334 0.13773,-0.19532 0.39065,-0.30801 0.25042,-0.11269 0.62104,-0.16027 0.37062,-0.0476 0.76879,-0.0701 v -0.015 q 0,-0.23289 -0.19032,-0.32054 -0.19032,-0.0901 -0.56094,-0.0901 -0.22287,0 -0.47579,0.0801 -0.25293,0.0776 -0.36311,0.12021 h -0.0826 v -0.67864 q 0.14274,-0.0376 0.46327,-0.0876 0.32304,-0.0526 0.64608,-0.0526 0.76879,0 1.10936,0.23789 0.34307,0.2354 0.34307,0.74124 v 1.9132 h -0.89399 z"
           style="text-align:center;text-anchor:middle"
           id="path5237" />
        <path
           d="m 129.20517,155.49074 q -0.36811,0 -0.67362,-0.0876 -0.30301,-0.0876 -0.52838,-0.27045 -0.22288,-0.18281 -0.34558,-0.46077 -0.12271,-0.27797 -0.12271,-0.65109 0,-0.39316 0.13022,-0.67863 0.13272,-0.28548 0.36812,-0.4733 0.22788,-0.17779 0.52587,-0.26043 0.298,-0.0826 0.61854,-0.0826 0.28798,0 0.53088,0.0626 0.24291,0.0626 0.45326,0.16277 v 0.76878 h -0.12771 q -0.0526,-0.0451 -0.12771,-0.10517 -0.0726,-0.0601 -0.18031,-0.1177 -0.10267,-0.0551 -0.22537,-0.0901 -0.12271,-0.0376 -0.28548,-0.0376 -0.3606,0 -0.55593,0.23038 -0.19282,0.22788 -0.19282,0.62104 0,0.40568 0.19783,0.61603 0.20033,0.21035 0.56595,0.21035 0.17028,0 0.30551,-0.0376 0.13773,-0.0401 0.22788,-0.0927 0.0851,-0.0501 0.15025,-0.10517 0.0651,-0.0551 0.1202,-0.10768 h 0.12771 v 0.76878 q -0.21285,0.10017 -0.44574,0.15777 -0.23039,0.0601 -0.51086,0.0601 z"
           style="text-align:center;text-anchor:middle"
           id="path5239" />
        <path
           d="m 133.5274,154.17604 h -2.06345 q 0.02,0.33055 0.25042,0.50584 0.23289,0.1753 0.68364,0.1753 0.28548,0 0.55342,-0.10267 0.26795,-0.10268 0.42321,-0.22037 h 0.10017 v 0.72371 q -0.30551,0.1227 -0.57596,0.17779 -0.27046,0.0551 -0.5985,0.0551 -0.84642,0 -1.29717,-0.38064 -0.45076,-0.38064 -0.45076,-1.08431 0,-0.69617 0.42572,-1.10184 0.42821,-0.40819 1.17195,-0.40819 0.68615,0 1.03173,0.34809 0.34558,0.34557 0.34558,0.99666 z m -0.8965,-0.52838 q -0.008,-0.28298 -0.14024,-0.42572 -0.13272,-0.14273 -0.41319,-0.14273 -0.26043,0 -0.42821,0.13522 -0.16778,0.13523 -0.18782,0.43323 z"
           style="text-align:center;text-anchor:middle"
           id="path5241" />
        <path
           d="m 138.95146,154.24365 q 0,0.55092 -0.46828,0.8965 -0.46578,0.34307 -1.26712,0.34307 -0.46327,0 -0.80885,-0.0801 -0.34307,-0.0826 -0.64358,-0.20785 v -0.89399 h 0.10518 q 0.298,0.2379 0.66611,0.36561 0.37062,0.12771 0.71119,0.12771 0.0877,0 0.23039,-0.015 0.14273,-0.015 0.23288,-0.0501 0.11019,-0.0451 0.18031,-0.11268 0.0726,-0.0676 0.0726,-0.20034 0,-0.1227 -0.10518,-0.21035 -0.10267,-0.0901 -0.303,-0.13773 -0.21036,-0.0501 -0.44575,-0.0927 -0.23289,-0.0451 -0.43823,-0.11268 -0.47079,-0.15276 -0.67864,-0.41319 -0.20534,-0.26294 -0.20534,-0.65109 0,-0.52087 0.46578,-0.84892 0.46828,-0.33055 1.20201,-0.33055 0.36811,0 0.72621,0.0726 0.3606,0.0701 0.62354,0.1778 v 0.85893 h -0.10267 q -0.22537,-0.1803 -0.55342,-0.3005 -0.32555,-0.12271 -0.66612,-0.12271 -0.1202,0 -0.2404,0.0175 -0.11769,0.015 -0.22788,0.0601 -0.0977,0.0376 -0.16778,0.1152 -0.0701,0.0751 -0.0701,0.17278 0,0.14775 0.11269,0.22789 0.11269,0.0776 0.42571,0.14273 0.20535,0.0426 0.39316,0.0826 0.19032,0.0401 0.40818,0.11019 0.42822,0.14023 0.63106,0.38314 0.20534,0.2404 0.20534,0.62604 z"
           style="text-align:center;text-anchor:middle"
           id="path5243" />
        <path
           d="m 140.8296,154.42145 0.64107,-1.81804 h 0.92655 l -1.56261,3.84392 h -0.97664 l 0.44575,-1.05175 -1.09433,-2.79217 h 0.94658 z"
           style="text-align:center;text-anchor:middle"
           id="path5245" />
        <path
           d="m 145.34214,154.52412 q 0,0.43573 -0.39066,0.70368 -0.39065,0.26544 -1.06928,0.26544 -0.37563,0 -0.68114,-0.0701 -0.30551,-0.0701 -0.49082,-0.15526 v -0.74123 h 0.0826 q 0.0676,0.0476 0.15526,0.10517 0.0901,0.0551 0.25292,0.1202 0.14023,0.0576 0.31803,0.10017 0.1778,0.0401 0.38064,0.0401 0.26544,0 0.39315,-0.0576 0.12772,-0.0601 0.12772,-0.17529 0,-0.10267 -0.0751,-0.14775 -0.0751,-0.0476 -0.28548,-0.0901 -0.10016,-0.0225 -0.27295,-0.0476 -0.17029,-0.0276 -0.31052,-0.0651 -0.38314,-0.10017 -0.56845,-0.31052 -0.18531,-0.21285 -0.18531,-0.52838 0,-0.40568 0.38314,-0.67363 0.38565,-0.27045 1.05176,-0.27045 0.31553,0 0.60351,0.0651 0.29048,0.0626 0.45325,0.13523 v 0.71118 h -0.0776 q -0.20033,-0.13773 -0.45826,-0.22287 -0.25543,-0.0876 -0.51837,-0.0876 -0.21786,0 -0.36811,0.0601 -0.14775,0.0601 -0.14775,0.17028 0,0.10017 0.0676,0.15276 0.0676,0.0526 0.31803,0.10517 0.13773,0.0275 0.2955,0.0551 0.16027,0.0251 0.32053,0.0651 0.3556,0.0927 0.52588,0.29299 0.17029,0.19783 0.17029,0.49583 z"
           style="text-align:center;text-anchor:middle"
           id="path5247" />
        <path
           d="m 147.73865,155.39057 q -0.14525,0.0376 -0.30802,0.0576 -0.16277,0.0225 -0.39816,0.0225 -0.52588,0 -0.78381,-0.21285 -0.25543,-0.21286 -0.25543,-0.72872 v -1.3147 h -0.37062 v -0.61102 h 0.37062 v -0.80384 h 0.9015 v 0.80384 h 0.84392 v 0.61102 h -0.84392 v 0.99667 q 0,0.14774 0.003,0.25793 0.002,0.11018 0.0401,0.19783 0.0351,0.0876 0.1227,0.14023 0.0901,0.0501 0.26044,0.0501 0.0701,0 0.1828,-0.03 0.11519,-0.0301 0.16027,-0.0551 h 0.0751 z"
           style="text-align:center;text-anchor:middle"
           id="path5249" />
        <path
           d="m 151.04667,154.17604 h -2.06345 q 0.02,0.33055 0.25042,0.50584 0.23289,0.1753 0.68364,0.1753 0.28548,0 0.55343,-0.10267 0.26795,-0.10268 0.42321,-0.22037 h 0.10016 v 0.72371 q -0.30551,0.1227 -0.57596,0.17779 -0.27045,0.0551 -0.5985,0.0551 -0.84641,0 -1.29717,-0.38064 -0.45075,-0.38064 -0.45075,-1.08431 0,-0.69617 0.42571,-1.10184 0.42822,-0.40819 1.17196,-0.40819 0.68615,0 1.03172,0.34809 0.34558,0.34557 0.34558,0.99666 z m -0.8965,-0.52838 q -0.008,-0.28298 -0.14023,-0.42572 -0.13272,-0.14273 -0.41319,-0.14273 -0.26044,0 -0.42822,0.13522 -0.16778,0.13523 -0.18781,0.43323 z"
           style="text-align:center;text-anchor:middle"
           id="path5251" />
        <path
           d="m 154.43233,153.42228 v 1.99333 h -0.90651 v -1.40485 q 0,-0.20534 -0.01,-0.34808 -0.01,-0.14524 -0.0551,-0.23539 -0.0451,-0.0901 -0.13773,-0.13022 -0.0901,-0.0426 -0.25543,-0.0426 -0.13272,0 -0.25793,0.0551 -0.12521,0.0526 -0.22538,0.11269 v 1.99333 h -0.9015 v -2.8122 h 0.9015 v 0.31052 q 0.23289,-0.18281 0.44575,-0.28548 0.21285,-0.10267 0.47078,-0.10267 0.27797,0 0.49082,0.12521 0.21286,0.12271 0.33306,0.36311 0.27045,-0.22788 0.52588,-0.3581 0.25543,-0.13022 0.50084,-0.13022 0.45576,0 0.69115,0.27296 0.2379,0.27295 0.2379,0.78631 v 1.83056 h -0.90652 v -1.40485 q 0,-0.20784 -0.01,-0.35058 -0.008,-0.14274 -0.0526,-0.23289 -0.0426,-0.0901 -0.13523,-0.13022 -0.0927,-0.0426 -0.26043,-0.0426 -0.11269,0 -0.22037,0.0401 -0.10768,0.0376 -0.26294,0.12771 z"
           style="text-align:center;text-anchor:middle"
           id="path5253" />
        <path
           d="m 159.55339,154.52412 q 0,0.43573 -0.39066,0.70368 -0.39065,0.26544 -1.06928,0.26544 -0.37563,0 -0.68114,-0.0701 -0.30551,-0.0701 -0.49082,-0.15526 v -0.74123 h 0.0826 q 0.0676,0.0476 0.15526,0.10517 0.0901,0.0551 0.25292,0.1202 0.14023,0.0576 0.31803,0.10017 0.1778,0.0401 0.38064,0.0401 0.26544,0 0.39315,-0.0576 0.12772,-0.0601 0.12772,-0.17529 0,-0.10267 -0.0751,-0.14775 -0.0751,-0.0476 -0.28547,-0.0901 -0.10017,-0.0225 -0.27296,-0.0476 -0.17029,-0.0276 -0.31052,-0.0651 -0.38314,-0.10017 -0.56845,-0.31052 -0.18531,-0.21285 -0.18531,-0.52838 0,-0.40568 0.38314,-0.67363 0.38565,-0.27045 1.05176,-0.27045 0.31553,0 0.60351,0.0651 0.29048,0.0626 0.45325,0.13523 v 0.71118 h -0.0776 q -0.20033,-0.13773 -0.45826,-0.22287 -0.25543,-0.0876 -0.51837,-0.0876 -0.21786,0 -0.36811,0.0601 -0.14775,0.0601 -0.14775,0.17028 0,0.10017 0.0676,0.15276 0.0676,0.0526 0.31804,0.10517 0.13773,0.0275 0.29549,0.0551 0.16027,0.0251 0.32053,0.0651 0.3556,0.0927 0.52588,0.29299 0.17029,0.19783 0.17029,0.49583 z"
           style="text-align:center;text-anchor:middle"
           id="path5255" />
        <path
           d="m 164.64439,155.41561 h -2.68949 v -3.72873 h 0.96161 v 3.00753 h 1.72788 z"
           style="text-align:center;text-anchor:middle"
           id="path5257" />
        <path
           d="m 166.87562,154.68188 v -0.58597 q -0.1828,0.015 -0.39566,0.0426 -0.21286,0.025 -0.32304,0.0601 -0.13523,0.0426 -0.20785,0.12521 -0.0701,0.0801 -0.0701,0.21285 0,0.0876 0.015,0.14274 0.015,0.0551 0.0751,0.10518 0.0576,0.0501 0.13773,0.0751 0.0801,0.0225 0.25042,0.0225 0.13522,0 0.27295,-0.0551 0.14024,-0.0551 0.24541,-0.14525 z m 0,0.43573 q -0.0726,0.0551 -0.1803,0.13272 -0.10768,0.0776 -0.20284,0.12271 -0.13272,0.0601 -0.27546,0.0876 -0.14274,0.03 -0.31302,0.03 -0.40067,0 -0.67112,-0.24792 -0.27046,-0.24791 -0.27046,-0.63356 0,-0.30801 0.13773,-0.50334 0.13774,-0.19532 0.39066,-0.30801 0.25042,-0.11269 0.62104,-0.16027 0.37061,-0.0476 0.76878,-0.0701 v -0.015 q 0,-0.23289 -0.19032,-0.32054 -0.19032,-0.0901 -0.56094,-0.0901 -0.22287,0 -0.47579,0.0801 -0.25292,0.0776 -0.36311,0.12021 h -0.0826 v -0.67864 q 0.14274,-0.0376 0.46328,-0.0876 0.32304,-0.0526 0.64608,-0.0526 0.76878,0 1.10935,0.23789 0.34308,0.2354 0.34308,0.74124 v 1.9132 h -0.894 z"
           style="text-align:center;text-anchor:middle"
           id="path5259" />
        <path
           d="m 171.5334,153.9707 q 0,0.66361 -0.36811,1.0818 -0.36561,0.4182 -0.91403,0.4182 -0.23539,0 -0.41319,-0.0501 -0.1778,-0.0501 -0.33806,-0.14524 l -0.0376,0.14023 h -0.86394 v -3.89651 h 0.90151 v 1.3773 q 0.20784,-0.16528 0.4232,-0.26795 0.21787,-0.10267 0.50084,-0.10267 0.53339,0 0.82137,0.38565 0.28798,0.38314 0.28798,1.05927 z m -0.92905,0.0175 q 0,-0.37563 -0.12771,-0.57847 -0.12771,-0.20284 -0.45576,-0.20284 -0.12772,0 -0.26294,0.0401 -0.13523,0.0376 -0.25793,0.11018 v 1.41236 q 0.0977,0.0351 0.18531,0.0476 0.0876,0.0125 0.21035,0.0125 0.3581,0 0.53339,-0.21035 0.17529,-0.21035 0.17529,-0.63105 z"
           style="text-align:center;text-anchor:middle"
           id="path5261" />
        <path
           d="m 175.0593,154.01076 q 0,0.69366 -0.40568,1.09433 -0.40318,0.39817 -1.1344,0.39817 -0.73122,0 -1.1369,-0.39817 -0.40317,-0.40067 -0.40317,-1.09433 0,-0.69866 0.40568,-1.09683 0.40818,-0.39817 1.13439,-0.39817 0.73623,0 1.1369,0.40067 0.40318,0.40067 0.40318,1.09433 z m -1.10936,0.68365 q 0.0876,-0.10768 0.13022,-0.25794 0.0451,-0.15275 0.0451,-0.4207 0,-0.24791 -0.0451,-0.41569 -0.0451,-0.16778 -0.12521,-0.26795 -0.0801,-0.10267 -0.19282,-0.14524 -0.11269,-0.0426 -0.24291,-0.0426 -0.13022,0 -0.23289,0.0351 -0.10016,0.0351 -0.19282,0.14024 -0.0826,0.0977 -0.13272,0.26795 -0.0476,0.17028 -0.0476,0.42821 0,0.23039 0.0426,0.40067 0.0426,0.16778 0.12521,0.27045 0.0801,0.0977 0.19032,0.14274 0.11269,0.0451 0.25542,0.0451 0.12271,0 0.23289,-0.0401 0.11269,-0.0426 0.19032,-0.14023 z"
           style="text-align:center;text-anchor:middle"
           id="path5263" />
        <path
           d="m 177.74379,153.46235 h -0.0801 q -0.0576,-0.02 -0.18531,-0.03 -0.12771,-0.01 -0.21285,-0.01 -0.19282,0 -0.34057,0.025 -0.14775,0.025 -0.31803,0.0851 v 1.88315 h -0.90151 v -2.8122 h 0.90151 v 0.41319 q 0.29799,-0.25543 0.51836,-0.33806 0.22037,-0.0851 0.40568,-0.0851 0.0476,0 0.10768,0.003 0.0601,0.002 0.10518,0.008 z"
           style="text-align:center;text-anchor:middle"
           id="path5265" />
        <path
           d="m 179.95748,154.68188 v -0.58597 q -0.1828,0.015 -0.39566,0.0426 -0.21286,0.025 -0.32304,0.0601 -0.13523,0.0426 -0.20785,0.12521 -0.0701,0.0801 -0.0701,0.21285 0,0.0876 0.015,0.14274 0.015,0.0551 0.0751,0.10518 0.0576,0.0501 0.13773,0.0751 0.0801,0.0225 0.25042,0.0225 0.13522,0 0.27295,-0.0551 0.14024,-0.0551 0.24541,-0.14525 z m 0,0.43573 q -0.0726,0.0551 -0.1803,0.13272 -0.10768,0.0776 -0.20284,0.12271 -0.13272,0.0601 -0.27546,0.0876 -0.14274,0.03 -0.31302,0.03 -0.40067,0 -0.67112,-0.24792 -0.27046,-0.24791 -0.27046,-0.63356 0,-0.30801 0.13773,-0.50334 0.13773,-0.19532 0.39066,-0.30801 0.25042,-0.11269 0.62104,-0.16027 0.37061,-0.0476 0.76878,-0.0701 v -0.015 q 0,-0.23289 -0.19032,-0.32054 -0.19032,-0.0901 -0.56094,-0.0901 -0.22287,0 -0.47579,0.0801 -0.25292,0.0776 -0.36311,0.12021 h -0.0826 v -0.67864 q 0.14274,-0.0376 0.46328,-0.0876 0.32304,-0.0526 0.64608,-0.0526 0.76878,0 1.10935,0.23789 0.34308,0.2354 0.34308,0.74124 v 1.9132 h -0.894 z"
           style="text-align:center;text-anchor:middle"
           id="path5267" />
        <path
           d="m 183.47837,155.39057 q -0.14524,0.0376 -0.30802,0.0576 -0.16277,0.0225 -0.39816,0.0225 -0.52588,0 -0.78381,-0.21285 -0.25543,-0.21286 -0.25543,-0.72872 v -1.3147 h -0.37062 v -0.61102 h 0.37062 v -0.80384 h 0.90151 v 0.80384 h 0.84391 v 0.61102 h -0.84391 v 0.99667 q 0,0.14774 0.002,0.25793 0.003,0.11018 0.0401,0.19783 0.0351,0.0876 0.1227,0.14023 0.0901,0.0501 0.26044,0.0501 0.0701,0 0.1828,-0.03 0.1152,-0.0301 0.16027,-0.0551 h 0.0751 z"
           style="text-align:center;text-anchor:middle"
           id="path5269" />
        <path
           d="m 186.89157,154.01076 q 0,0.69366 -0.40568,1.09433 -0.40317,0.39817 -1.13439,0.39817 -0.73122,0 -1.1369,-0.39817 -0.40318,-0.40067 -0.40318,-1.09433 0,-0.69866 0.40568,-1.09683 0.40818,-0.39817 1.1344,-0.39817 0.73623,0 1.1369,0.40067 0.40317,0.40067 0.40317,1.09433 z m -1.10935,0.68365 q 0.0876,-0.10768 0.13021,-0.25794 0.0451,-0.15275 0.0451,-0.4207 0,-0.24791 -0.0451,-0.41569 -0.0451,-0.16778 -0.1252,-0.26795 -0.0801,-0.10267 -0.19283,-0.14524 -0.11269,-0.0426 -0.2429,-0.0426 -0.13022,0 -0.23289,0.0351 -0.10017,0.0351 -0.19282,0.14024 -0.0826,0.0977 -0.13273,0.26795 -0.0476,0.17028 -0.0476,0.42821 0,0.23039 0.0426,0.40067 0.0426,0.16778 0.1252,0.27045 0.0801,0.0977 0.19032,0.14274 0.11269,0.0451 0.25543,0.0451 0.1227,0 0.23289,-0.0401 0.11269,-0.0426 0.19032,-0.14023 z"
           style="text-align:center;text-anchor:middle"
           id="path5271" />
        <path
           d="m 189.57605,153.46235 h -0.0801 q -0.0576,-0.02 -0.18531,-0.03 -0.12771,-0.01 -0.21285,-0.01 -0.19283,0 -0.34057,0.025 -0.14775,0.025 -0.31804,0.0851 v 1.88315 h -0.9015 v -2.8122 h 0.9015 v 0.41319 q 0.298,-0.25543 0.51837,-0.33806 0.22037,-0.0851 0.40568,-0.0851 0.0476,0 0.10768,0.003 0.0601,0.002 0.10517,0.008 z"
           style="text-align:center;text-anchor:middle"
           id="path5273" />
        <path
           d="m 191.35653,154.42145 0.64107,-1.81804 h 0.92655 l -1.56261,3.84392 h -0.97663 l 0.44574,-1.05175 -1.09432,-2.79217 h 0.94658 z"
           style="text-align:center;text-anchor:middle"
           id="path5275" />
      </g>
      <g
         id="g317657-4-6-8-3"
         transform="translate(6.5343816,21.368603)">
        <path
           class="st0"
           d="m 26.809731,92.444861 c -2.246139,-0.38934 -3.63005,-1.63784 -4.994888,-3.233078 2.45629,0.53949 4.856673,1.094888 7.269619,1.591798 6.006601,1.23688 12.018832,2.44707 18.028468,3.66932 0.605293,0.12304 1.211897,0.36483 1.812,0.34804 0.559361,-0.0158 0.853562,-0.62682 1.256956,-0.97788 2.183299,-1.90155 4.497469,-3.48561 7.598472,-3.27954 0.24872,0.0163 0.496549,0.068 0.740482,0.12176 1.070215,0.23704 1.149909,0.16844 0.936301,0.31219 -0.344891,0.23231 -0.671993,0.57454 -1.015151,0.809 -2.928999,2.00051 -5.138743,4.6799 -7.267455,7.45868 -0.87436,1.140929 -2.213651,1.813789 -3.384806,2.641519 -1.938074,1.37024 -3.953714,2.62174 -6.044298,3.74977 -0.738309,0.39838 -2.264341,1.08586 -2.264341,1.08586 0,0 -0.854434,-0.66339 -1.197592,-1.07038 -1.837555,-2.17948 -3.812033,-4.1761 -6.503581,-5.31834 -0.09096,-0.0387 -0.18631,-0.0675 -0.303729,-0.10926 2.74312,1.91962 4.771313,4.50608 6.95463,6.93809 0.01724,0.0189 -0.0073,0.11573 -0.03255,0.12563 -3.039906,1.21579 -6.166475,2.0702 -9.473293,1.73162 -2.084523,-0.21339 -3.925985,-0.98391 -5.420372,-2.60754 -1.832787,-1.99104 -1.132166,-4.72464 -0.11266,-6.636519 0.93764,-1.75829 2.210185,-3.26448 3.783873,-4.96039 -1.122639,1.62449 -2.058105,2.97838 -2.717123,4.49791 -1.532525,3.535509 0.07758,6.297499 3.972337,6.787519 2.201079,0.27664 6.397854,-0.29384 7.533487,-1.0437 -1.114395,-0.18758 -2.196311,-0.36095 -3.213223,-0.82214 -1.43373,-0.65007 -1.961475,-2.02116 -2.710622,-3.22276 -0.471406,-0.75675 -1.018214,-1.449399 -1.746124,-1.984589 -0.02989,-0.0219 -0.04677,-0.0606 -0.06978,-0.0921 0.02558,-0.008 0.05373,-0.028 0.0762,-0.0228 2.383492,0.5296 5.021747,0.0288 7.137905,1.604709 1.136934,0.84667 1.825855,2.09343 2.440253,3.35526 0.05548,0.11444 0.07492,0.14153 0.20884,0.0594 2.130014,-1.30742 4.117916,-2.80716 6.056429,-4.375729 0.04897,-0.0395 0.08922,-0.0895 0.133456,-0.13465 -0.05722,-0.0225 -0.112219,-0.0516 -0.171152,-0.0663 -2.276905,-0.55929 -4.550764,-1.13233 -6.832445,-1.67183 -3.487058,-0.82472 -6.897429,-1.8409 -9.955107,-3.77731 -0.393848,-0.24952 -0.794207,-0.48872 -1.180692,-0.749 -0.204512,-0.1381 -0.385192,-0.31105 -0.648188,-0.52658 5.840235,0.81817 11.310601,2.52159 16.057898,3.03301 0.672983,0.081 0.667821,0.0818 -0.0055,0.002 -4.700726,-0.90924 -10.18945,-2.4208 -14.732794,-3.24032 z"
           id="path14772-8-1-5-3-8-6-4-8-3-4-6-7-5"
           style="fill:url(#linearGradient587916);fill-opacity:1;stroke-width:0.0431748"
           sodipodi:nodetypes="ccccccccccccsccccccccccccccccccsccccccccccccc"
           inkscape:export-filename="IDEAS-Logo.png"
           inkscape:export-xdpi="600"
           inkscape:export-ydpi="600" />
      </g>
      <g
         aria-label="IDEAS"
         transform="matrix(0.99028118,0,0,1.0098142,-9.8154954,-86.703547)"
         id="text11007-4-9-1-3-4-2-5-6-7-4-2-5-7-4-7-2"
         style="font-weight:800;font-size:25.1531px;font-family:Montserrat;-inkscape-font-specification:'Montserrat, Ultra-Bold';fill:url(#linearGradient458693);stroke-width:1.471">
        <path
           d="M 89.651614,214.39478 H 78.941896 v -3.2424 h 2.996756 v -11.80279 h -2.996756 v -3.24239 h 10.709718 v 3.24239 h -2.996756 v 11.80279 h 2.996756 z"
           id="path1788"
           style="fill:url(#linearGradient7572)" />
        <path
           d="m 110.77629,205.26941 q 0,2.55461 -1.16677,4.5811 -1.16677,2.01422 -2.94763,3.09501 -1.33872,0.8106 -2.93535,1.12993 -1.59663,0.31933 -3.782789,0.31933 H 93.495813 V 196.1072 h 6.632167 q 2.23528,0 3.85648,0.38073 1.62119,0.36845 2.72656,1.05623 1.89139,1.15449 2.97219,3.11958 1.09308,1.9528 1.09308,4.60567 z m -4.87587,-0.0368 q 0,-1.80542 -0.66322,-3.08273 -0.65093,-1.28958 -2.07562,-2.01421 -0.72463,-0.35617 -1.4861,-0.47899 -0.74919,-0.1351 -2.272128,-0.1351 h -1.191333 v 11.44663 h 1.191333 q 1.682608,0 2.468638,-0.14738 0.78604,-0.15967 1.53522,-0.56497 1.28959,-0.7369 1.8914,-1.96508 0.60181,-1.24046 0.60181,-3.05817 z"
           id="path1790"
           style="fill:url(#linearGradient7574)" />
        <path
           d="M 127.06798,214.39478 H 113.84049 V 196.1072 h 13.22749 v 3.53715 h -8.53584 v 3.15642 h 7.92175 v 3.53715 h -7.92175 v 4.5197 h 8.53584 z"
           id="path1792"
           style="fill:url(#linearGradient7576)" />
        <path
           d="m 147.92245,214.39478 h -4.87587 l -1.26502,-3.69682 h -6.77955 l -1.26502,3.69682 h -4.75305 l 6.75498,-18.28758 h 5.42855 z m -7.2831,-7.04975 -2.24756,-6.55847 -2.24757,6.55847 z"
           id="path1794"
           style="fill:url(#linearGradient7578)" />
        <path
           d="m 165.19064,208.6469 q 0,2.70199 -2.29669,4.39688 -2.28442,1.6826 -6.21459,1.6826 -2.27213,0 -3.96701,-0.39301 -1.68261,-0.4053 -3.15642,-1.01939 v -4.3846 h 0.51583 q 1.46153,1.16677 3.26696,1.79314 1.8177,0.62637 3.48802,0.62637 0.42987,0 1.12993,-0.0737 0.70006,-0.0737 1.1422,-0.24563 0.5404,-0.22108 0.88429,-0.55268 0.35618,-0.33161 0.35618,-0.98255 0,-0.60181 -0.51584,-1.03167 -0.50355,-0.44214 -1.4861,-0.6755 -1.03167,-0.24563 -2.18615,-0.45442 -1.14221,-0.22107 -2.14932,-0.55268 -2.30897,-0.74919 -3.32836,-2.0265 -1.00711,-1.28958 -1.00711,-3.19326 0,-2.55461 2.28441,-4.16353 2.2967,-1.62119 5.89526,-1.62119 1.80543,0 3.56172,0.35617 1.76858,0.34389 3.05817,0.87201 v 4.21265 h -0.50356 q -1.10536,-0.88429 -2.71427,-1.47382 -1.59663,-0.6018 -3.26696,-0.6018 -0.58952,0 -1.17905,0.086 -0.57724,0.0737 -1.11764,0.29476 -0.47899,0.18423 -0.82288,0.56496 -0.34389,0.36846 -0.34389,0.84745 0,0.72462 0.55268,1.11764 0.55268,0.38074 2.0879,0.70006 1.00711,0.20879 1.92824,0.4053 0.93342,0.19651 2.00193,0.5404 2.10019,0.68778 3.09501,1.87911 1.00711,1.17905 1.00711,3.07045 z"
           id="path1796"
           style="fill:url(#linearGradient2372)" />
      </g>
    </g>
  </g>
</svg>
